<svg width="41" height="35" viewBox="0 0 41 35" fill="none" xmlns="http://www.w3.org/2000/svg">
<circle cx="15" cy="20" r="15" fill="#7858B3"/>
<path d="M14.5312 9.6875L8.4375 19.8437H20.625L14.5312 9.6875Z" fill="#B9ACFF"/>
<path d="M14.5313 30.6769L20.625 20.5206L14.5313 23.906L8.4375 20.5206L14.5313 30.6769Z" fill="#9C8BF9"/>
<path fill-rule="evenodd" clip-rule="evenodd" d="M14.5313 19.8437V9.68791L14.5312 9.68785L14.5315 9.6875L20.6252 19.8437H14.5313Z" fill="#9C8BF9"/>
<path d="M20.625 19.8431L14.5313 16.4576L14.5313 23.2285L20.625 19.8431Z" fill="#441592"/>
<path d="M8.4375 19.8431L14.5312 16.4576L14.5312 23.2285L8.4375 19.8431Z" fill="#9885FE"/>
<path fill-rule="evenodd" clip-rule="evenodd" d="M14.5312 30.6768V23.9061L20.6249 20.5208L14.5312 30.6768Z" fill="#441592"/>
<path d="M32.6464 8.64645C32.4512 8.84171 32.4512 9.15829 32.6464 9.35355L35.8284 12.5355C36.0237 12.7308 36.3403 12.7308 36.5355 12.5355C36.7308 12.3403 36.7308 12.0237 36.5355 11.8284L33.7071 9L36.5355 6.17157C36.7308 5.97631 36.7308 5.65973 36.5355 5.46447C36.3403 5.2692 36.0237 5.2692 35.8284 5.46447L32.6464 8.64645ZM41 8.5L33 8.5L33 9.5L41 9.5L41 8.5Z" fill="white"/>
<path d="M25.6464 3.64645C25.4512 3.84171 25.4512 4.15829 25.6464 4.35355L28.8284 7.53553C29.0237 7.7308 29.3403 7.7308 29.5355 7.53553C29.7308 7.34027 29.7308 7.02369 29.5355 6.82843L26.7071 4L29.5355 1.17157C29.7308 0.97631 29.7308 0.659728 29.5355 0.464466C29.3403 0.269203 29.0237 0.269203 28.8284 0.464466L25.6464 3.64645ZM34 3.5L26 3.5L26 4.5L34 4.5L34 3.5Z" fill="white"/>
</svg>
