<svg width="43" height="34" viewBox="0 0 43 34" fill="none" xmlns="http://www.w3.org/2000/svg">
<circle cx="15" cy="19" r="15" fill="#7858B3"/>
<path d="M14.5312 8.6875L8.4375 18.8437H20.625L14.5312 8.6875Z" fill="#B9ACFF"/>
<path d="M14.5313 29.6769L20.625 19.5206L14.5313 22.906L8.4375 19.5206L14.5313 29.6769Z" fill="#9C8BF9"/>
<path fill-rule="evenodd" clip-rule="evenodd" d="M14.5313 18.8437V8.68791L14.5312 8.68785L14.5315 8.6875L20.6252 18.8437H14.5313Z" fill="#9C8BF9"/>
<path d="M20.625 18.8431L14.5313 15.4576L14.5313 22.2285L20.625 18.8431Z" fill="#441592"/>
<path d="M8.4375 18.8431L14.5312 15.4576L14.5312 22.2285L8.4375 18.8431Z" fill="#9885FE"/>
<path fill-rule="evenodd" clip-rule="evenodd" d="M14.5312 29.6768V22.9061L20.6249 19.5208L14.5312 29.6768Z" fill="#441592"/>
<path d="M42.3536 7.64645C42.5488 7.84171 42.5488 8.15829 42.3536 8.35355L39.1716 11.5355C38.9763 11.7308 38.6597 11.7308 38.4645 11.5355C38.2692 11.3403 38.2692 11.0237 38.4645 10.8284L41.2929 8L38.4645 5.17157C38.2692 4.97631 38.2692 4.65973 38.4645 4.46447C38.6597 4.2692 38.9763 4.2692 39.1716 4.46447L42.3536 7.64645ZM34 7.5L42 7.5L42 8.5L34 8.5L34 7.5Z" fill="white"/>
<path d="M34.3536 3.64645C34.5488 3.84171 34.5488 4.15829 34.3536 4.35355L31.1716 7.53553C30.9763 7.7308 30.6597 7.7308 30.4645 7.53553C30.2692 7.34027 30.2692 7.02369 30.4645 6.82843L33.2929 4L30.4645 1.17157C30.2692 0.97631 30.2692 0.659728 30.4645 0.464466C30.6597 0.269203 30.9763 0.269203 31.1716 0.464466L34.3536 3.64645ZM26 3.5L34 3.5L34 4.5L26 4.5L26 3.5Z" fill="white"/>
</svg>
