<svg width="24" height="20" viewBox="0 0 24 20" fill="none" xmlns="http://www.w3.org/2000/svg">
<path d="M23.7199 2.87997C22.8799 3.23997 21.92 3.47998 20.96 3.59998C21.92 2.99998 22.7599 2.03998 23.1199 0.959979C22.1599 1.55998 21.2 1.91998 20 2.15998C19.16 1.19998 17.8399 0.599976 16.5199 0.599976C13.8799 0.599976 11.7199 2.75998 11.7199 5.39998C11.7199 5.75998 11.7199 6.11997 11.8399 6.47997C7.87995 6.23997 4.27994 4.31997 1.87994 1.43997C1.51994 2.15997 1.27994 2.99997 1.27994 3.83997C1.27994 5.51997 2.11995 6.95998 3.43995 7.79998C2.59995 7.79998 1.87994 7.55998 1.27994 7.19998C1.27994 9.47998 2.95994 11.52 5.11994 11.88C4.75994 12 4.27995 12 3.79995 12C3.43995 12 3.19995 12 2.83995 11.88C3.43995 13.8 5.23995 15.24 7.39995 15.24C5.71995 16.56 3.67995 17.28 1.39995 17.28C1.03995 17.28 0.679951 17.28 0.199951 17.16C2.35995 18.48 4.87995 19.32 7.63995 19.32C16.5199 19.32 21.3199 12 21.3199 5.63997V5.03997C22.2799 4.67997 23.1199 3.83997 23.7199 2.87997Z" fill="white"/>
</svg>
