<svg width="20" height="20" viewBox="0 0 20 20" fill="none" xmlns="http://www.w3.org/2000/svg">
<g clip-path="url(#clip0_33_7743)">
<path d="M8.66394 5.45026C8.5498 5.25968 8.33766 5.15027 8.11613 5.1671L3.35465 5.53491C2.87258 5.57218 2.44317 5.82483 2.17645 6.22819L0.178228 9.25051C-0.0239969 9.5564 -0.0561841 9.93917 0.0921741 10.2745C0.240493 10.6098 0.545374 10.8434 0.907676 10.8996L4.76858 11.4976C4.79862 11.5022 4.82862 11.5045 4.85839 11.5045C5.05616 11.5045 5.24327 11.4042 5.35198 11.2341L8.65496 6.06686C8.77461 5.87964 8.77804 5.64089 8.66394 5.45026Z" fill="#E45A6E"/>
<path d="M14.5497 11.336C14.3591 11.2219 14.1203 11.2254 13.9331 11.345L8.76587 14.648C8.57021 14.7731 8.46689 15.0019 8.5024 15.2314L9.10036 19.0923C9.15649 19.4547 9.39016 19.7595 9.72551 19.9079C9.86496 19.9695 10.0126 20 10.1596 20C10.3659 20 10.5708 19.9399 10.7494 19.8218L13.7718 17.8235C14.1752 17.5569 14.4279 17.1274 14.465 16.6453L14.8329 11.8839C14.85 11.6624 14.7403 11.4502 14.5497 11.336Z" fill="#D82E44"/>
<path d="M7.53392 16.1045C7.76712 16.3377 8.09849 16.4468 8.42376 16.3924C13.1937 15.5948 16.9683 11.6455 18.4052 8.86725C20.0009 5.78235 20.06 2.52237 19.9766 0.99348C19.948 0.469577 19.5304 0.0519635 19.0065 0.0233699C17.4776 -0.0599888 14.2177 -0.000887655 11.1327 1.59476C8.35454 3.03174 4.4052 6.80629 3.60763 11.5762C3.55325 11.9015 3.66231 12.2329 3.89551 12.4661L7.53392 16.1045Z" fill="#F1F1FB"/>
<path d="M19.6773 0.322632L5.71472 14.2852L7.53393 16.1044C7.76713 16.3376 8.09849 16.4467 8.42376 16.3923C13.1937 15.5947 16.9683 11.6454 18.4052 8.86721C20.0009 5.78232 20.06 2.52234 19.9766 0.993447C19.9623 0.731496 19.8507 0.496107 19.6773 0.322632Z" fill="#D7D6FB"/>
<path d="M13.7003 9.22793C12.95 9.22797 12.2 8.94242 11.6287 8.37122C11.0754 7.8179 10.7706 7.08216 10.7706 6.29963C10.7706 5.5171 11.0754 4.78136 11.6287 4.22805C12.771 3.08579 14.6296 3.08575 15.7719 4.22805C16.3252 4.78136 16.63 5.5171 16.63 6.29963C16.63 7.08216 16.3252 7.8179 15.7719 8.37122C15.2008 8.94231 14.4504 9.22785 13.7003 9.22793Z" fill="#466288"/>
<path d="M3.60763 11.5762C3.55325 11.9015 3.66231 12.2328 3.89551 12.466L7.53392 16.1045C7.76712 16.3377 8.09849 16.4467 8.42376 16.3923C9.46168 16.2188 10.4524 15.8959 11.3822 15.4684L4.53153 8.6178C4.10407 9.5476 3.78118 10.5383 3.60763 11.5762Z" fill="#466288"/>
<path d="M0.597759 16.4819C0.747681 16.4819 0.897681 16.4246 1.01206 16.3102L2.92506 14.3972C3.15389 14.1684 3.15389 13.7974 2.92506 13.5686C2.69627 13.3398 2.3253 13.3398 2.09643 13.5686L0.183462 15.4816C-0.0453662 15.7104 -0.0453662 16.0814 0.183462 16.3102C0.297876 16.4247 0.447798 16.4819 0.597759 16.4819Z" fill="#FDB43A"/>
<path d="M4.67827 15.3217C4.44948 15.0929 4.07846 15.0929 3.84963 15.3217L0.171743 18.9996C-0.057085 19.2284 -0.057085 19.5994 0.171743 19.8283C0.286157 19.9427 0.436118 19.9999 0.586079 19.9999C0.73604 19.9999 0.886001 19.9426 1.00038 19.8282L4.67827 16.1503C4.90709 15.9215 4.90709 15.5505 4.67827 15.3217Z" fill="#FDB43A"/>
<path d="M6.43141 17.0749C6.20262 16.8461 5.83161 16.8461 5.60278 17.0749L3.68981 18.9879C3.46098 19.2167 3.46098 19.5877 3.68981 19.8165C3.80422 19.9309 3.95418 19.9882 4.10411 19.9882C4.25403 19.9882 4.40403 19.9309 4.5184 19.8165L6.43141 17.9035C6.66024 17.6747 6.66024 17.3037 6.43141 17.0749Z" fill="#F57A21"/>
<path d="M0.171753 19.8283C0.286167 19.9428 0.436128 19.9999 0.586089 19.9999C0.73605 19.9999 0.886011 19.9427 1.00039 19.8283L4.67828 16.1504C4.9071 15.9216 4.9071 15.5506 4.67828 15.3218L0.171753 19.8283Z" fill="#F57A21"/>
<path d="M5.71472 14.2852L7.53393 16.1044C7.76713 16.3376 8.09849 16.4467 8.42376 16.3923C9.46168 16.2188 10.4524 15.8959 11.3822 15.4684L7.95689 12.0431L5.71472 14.2852Z" fill="#354A67"/>
<path d="M11.6288 8.37135C12.2 8.94256 12.95 9.22815 13.7004 9.22807C14.4505 9.22799 15.2009 8.94241 15.7719 8.37135C16.3253 7.81799 16.63 7.08229 16.63 6.29975C16.63 5.51721 16.3253 4.78147 15.7719 4.22815L11.6288 8.37135Z" fill="#354A67"/>
<path d="M13.7003 4.54272C13.2502 4.54272 12.8 4.71405 12.4574 5.05675C12.1254 5.38874 11.9425 5.83015 11.9425 6.29968C11.9425 6.76921 12.1254 7.21062 12.4574 7.54261C13.1427 8.22796 14.258 8.228 14.9433 7.54261C15.2753 7.21058 15.4582 6.76917 15.4582 6.29964C15.4582 5.83011 15.2753 5.3887 14.9433 5.05671C14.6006 4.71405 14.1505 4.54272 13.7003 4.54272Z" fill="#4BBEFD"/>
<path d="M14.9433 5.05676L12.4574 7.54266C13.1427 8.22801 14.258 8.22805 14.9433 7.54266C15.2753 7.21063 15.4581 6.76922 15.4581 6.29969C15.4581 5.83016 15.2753 5.38875 14.9433 5.05676Z" fill="#0590FB"/>
</g>
<defs>
<clipPath id="clip0_33_7743">
<rect width="20" height="20" fill="white"/>
</clipPath>
</defs>
</svg>
