<svg width="28" height="19" viewBox="0 0 28 19" fill="none" xmlns="http://www.w3.org/2000/svg">
<path d="M15 16.9448C19.3878 16.9448 22.9448 13.3878 22.9448 9.00002C22.9448 4.61227 19.3878 1.0553 15 1.0553C10.6123 1.0553 7.0553 4.61227 7.0553 9.00002C7.0553 13.3878 10.6123 16.9448 15 16.9448Z" fill="#FFD15B"/>
<path d="M16.4445 3.53784H24.5696C24.5985 3.53784 24.622 3.51437 24.622 3.48543V2.11977C24.622 1.89481 24.8929 1.78096 25.0536 1.93843L27.9239 4.75125C28.0254 4.85078 28.0254 5.0144 27.9239 5.11393L25.0536 7.92676C24.8929 8.08423 24.622 7.97038 24.622 7.74542V6.37976C24.622 6.35081 24.5985 6.32735 24.5696 6.32735H16.4445L16.4445 3.53784Z" fill="#FFD64F"/>
<path d="M11.5555 14.4622H3.43048C3.40153 14.4622 3.37807 14.4857 3.37807 14.5146V15.8803C3.37807 16.1053 3.1071 16.2191 2.94643 16.0616L0.0761719 13.2488C-0.0253906 13.1493 -0.0253906 12.9857 0.0761719 12.8861L2.94643 10.0733C3.1071 9.91584 3.37807 10.0297 3.37807 10.2547V11.6203C3.37807 11.6493 3.40153 11.6727 3.43048 11.6727H11.5555V14.4622Z" fill="#80C6FF"/>
<circle cx="14.5" cy="9" r="9" fill="#7858B3"/>
<path d="M14.2187 2.8125L10.5625 8.90625H17.875L14.2187 2.8125Z" fill="#B9ACFF"/>
<path d="M14.2188 15.4062L17.875 9.3125L14.2188 11.3438L10.5625 9.3125L14.2188 15.4062Z" fill="#9C8BF9"/>
<path fill-rule="evenodd" clip-rule="evenodd" d="M14.2188 8.90625V2.81274L14.2188 2.81255L14.2188 2.8125L17.875 8.90625H14.2188Z" fill="#9C8BF9"/>
<path d="M17.875 8.90588L14.2188 6.87463L14.2188 10.9371L17.875 8.90588Z" fill="#441592"/>
<path d="M10.5625 8.90588L14.2187 6.87463L14.2187 10.9371L10.5625 8.90588Z" fill="#9885FE"/>
<path fill-rule="evenodd" clip-rule="evenodd" d="M14.2188 15.4062V11.3438L17.875 9.3125L14.2188 15.4062Z" fill="#441592"/>
</svg>
