<svg width="20" height="20" viewBox="0 0 20 20" fill="none" xmlns="http://www.w3.org/2000/svg">
<g clip-path="url(#clip0_9_831)">
<path d="M7.08337 0.833374H2.91671C1.76611 0.833374 0.833374 1.76611 0.833374 2.91671V4.58337C0.833374 5.73397 1.76611 6.66671 2.91671 6.66671H7.08337C8.23397 6.66671 9.16671 5.73397 9.16671 4.58337V2.91671C9.16671 1.76611 8.23397 0.833374 7.08337 0.833374Z" fill="#F5C12E"/>
<path d="M7.08337 7.5H2.91671C1.76611 7.5 0.833374 8.43274 0.833374 9.58333V17.0833C0.833374 18.2339 1.76611 19.1667 2.91671 19.1667H7.08337C8.23397 19.1667 9.16671 18.2339 9.16671 17.0833V9.58333C9.16671 8.43274 8.23397 7.5 7.08337 7.5Z" fill="#F5C12E"/>
<path d="M17.0834 13.3334H12.9167C11.7661 13.3334 10.8334 14.2661 10.8334 15.4167V17.0834C10.8334 18.234 11.7661 19.1667 12.9167 19.1667H17.0834C18.234 19.1667 19.1667 18.234 19.1667 17.0834V15.4167C19.1667 14.2661 18.234 13.3334 17.0834 13.3334Z" fill="#F0AB00"/>
<path d="M17.0834 0.833374H12.9167C11.7661 0.833374 10.8334 1.76611 10.8334 2.91671V10.4167C10.8334 11.5673 11.7661 12.5 12.9167 12.5H17.0834C18.234 12.5 19.1667 11.5673 19.1667 10.4167V2.91671C19.1667 1.76611 18.234 0.833374 17.0834 0.833374Z" fill="#F0AB00"/>
</g>
<defs>
<clipPath id="clip0_9_831">
<rect width="20" height="20" fill="white"/>
</clipPath>
</defs>
</svg>
