<svg width="23" height="23" viewBox="0 0 23 23" fill="none" xmlns="http://www.w3.org/2000/svg">
<path d="M18.3515 4.64851C16.7491 3.04659 14.6845 2.07448 12.4586 1.85706C12.1419 1.82651 11.8221 1.81079 11.5 1.81079C8.91204 1.81079 6.47862 2.81884 4.64851 4.64851C2.81884 6.47862 1.81079 8.91204 1.81079 11.5C1.81079 14.0879 2.81884 16.5214 4.64851 18.3515C5.20329 18.9058 5.81333 19.3851 6.46605 19.7831C7.96778 20.6995 9.69638 21.1892 11.5 21.1892C14.0879 21.1892 16.5214 20.1811 18.3515 18.3515C20.1811 16.5214 21.1892 14.0879 21.1892 11.5C21.1892 8.91204 20.1811 6.47862 18.3515 4.64851ZM11.5 19.1574C9.57823 19.1574 7.81999 18.4458 6.47413 17.272C4.86278 15.8677 3.84261 13.8009 3.84261 11.5C3.84261 7.74183 6.56398 4.60763 10.1393 3.9639C10.5809 3.88394 11.0359 3.84261 11.5 3.84261C15.7222 3.84261 19.1574 7.27778 19.1574 11.5C19.1574 15.7222 15.7222 19.1574 11.5 19.1574Z" fill="#88C7FC"/>
<path d="M12.9029 11.9069V15.5316C12.9029 16.2854 12.3054 16.9022 11.5593 16.9332C11.5395 16.9341 11.5197 16.9346 11.5 16.9346C10.7264 16.9346 10.097 16.3052 10.097 15.5316V11.9069C10.097 11.1333 10.7264 10.5035 11.5 10.5035C11.5345 10.5035 11.5687 10.5049 11.6028 10.5071C12.3288 10.5601 12.9029 11.1679 12.9029 11.9069Z" fill="#FFD64F"/>
<path d="M13.433 7.9983C13.433 8.73816 13.0148 9.38279 12.402 9.70712C12.1325 9.85042 11.8257 9.93128 11.5 9.93128C10.434 9.93128 9.56702 9.06384 9.56702 7.9983C9.56702 6.9323 10.434 6.06531 11.5 6.06531C11.5611 6.06531 11.6213 6.068 11.6806 6.07384C12.6621 6.16503 13.433 6.99339 13.433 7.9983Z" fill="#FFD64F"/>
<path d="M12.4586 1.85706C11.5809 2.43296 10.8077 3.15036 10.1393 3.9639C6.56398 4.60763 3.84261 7.74183 3.84261 11.5C3.84261 13.8009 4.86278 15.8677 6.47413 17.272C6.44448 18.1084 6.42876 18.9485 6.46605 19.7831C5.81333 19.3851 5.20329 18.9058 4.64851 18.3515C2.81884 16.5214 1.81079 14.0879 1.81079 11.5C1.81079 8.91204 2.81884 6.47862 4.64851 4.64851C6.47862 2.81884 8.91204 1.81079 11.5 1.81079C11.8221 1.81079 12.1419 1.82651 12.4586 1.85706Z" fill="#75C4EF"/>
</svg>
