<svg width="20" height="20" viewBox="0 0 20 20" fill="none" xmlns="http://www.w3.org/2000/svg">
<g clip-path="url(#clip0_9_756)">
<path d="M11.05 19.475C10.6992 19.5124 10.3466 19.5312 9.99378 19.5313C8.68228 19.5344 7.38445 19.2649 6.18264 18.7399C4.98083 18.2148 3.90129 17.4457 3.01253 16.4813L2.98128 16.45C1.60412 14.9603 0.742916 13.067 0.525027 11.05C0.525027 11.05 0.525027 11 0.525027 10.9688C0.524514 10.7709 0.599058 10.5803 0.733616 10.4353C0.868174 10.2903 1.05273 10.2018 1.25003 10.1875H1.33753H1.47503C1.63944 10.2169 1.78964 10.2995 1.90255 10.4226C2.01546 10.5457 2.08484 10.7024 2.10003 10.8688C2.26601 12.4049 2.87879 13.8586 3.86253 15.05C3.92596 15.1376 3.99485 15.2211 4.06878 15.3C4.81341 16.1378 5.7268 16.8088 6.749 17.2687C7.7712 17.7286 8.87912 17.9672 10 17.9688C10.2945 17.9677 10.5886 17.951 10.8813 17.9188C12.4094 17.7476 13.8554 17.1383 15.0452 16.1642C16.235 15.1902 17.1179 13.893 17.5875 12.4288C18.057 10.9646 18.0933 9.39583 17.6919 7.91149C17.2905 6.42715 16.4685 5.0905 15.325 4.06251C13.8621 2.75059 11.9651 2.02697 10 2.03126C9.70344 2.02923 9.40701 2.04593 9.11253 2.08126C7.74603 2.22856 6.44141 2.72899 5.32694 3.53334C4.21247 4.33768 3.32655 5.41824 2.75628 6.66876C2.71388 6.76251 2.65324 6.84688 2.5779 6.91694C2.50256 6.98701 2.41402 7.04137 2.31744 7.07686C2.22087 7.11235 2.11819 7.12825 2.01541 7.12364C1.91262 7.11903 1.81179 7.094 1.71878 7.05001C1.62627 7.00749 1.54322 6.94687 1.47452 6.87173C1.40582 6.79659 1.35287 6.70845 1.31878 6.61251C1.30055 6.57061 1.28794 6.52647 1.28128 6.48126C1.24996 6.323 1.26966 6.15888 1.33753 6.01251C2.02171 4.51631 3.0832 3.22373 4.41781 2.26167C5.75242 1.29961 7.31427 0.701144 8.95003 0.525012C9.2988 0.487861 9.64928 0.469085 10 0.468762C12.3473 0.464961 14.6132 1.32859 16.3625 2.89376C16.3727 2.89042 16.3836 2.89042 16.3938 2.89376C17.7555 4.12624 18.7324 5.72568 19.207 7.49991C19.6817 9.27415 19.6341 11.1477 19.0697 12.8955C18.5054 14.6433 17.4484 16.191 16.0258 17.3526C14.6031 18.5142 12.8754 19.2403 11.05 19.4438V19.475Z" fill="#699EFA"/>
<path d="M5.76247 5.95623C5.7115 6.04529 5.64321 6.12326 5.56163 6.18551C5.48005 6.24777 5.38683 6.29307 5.28747 6.31873L2.23747 7.09998C2.17321 7.10912 2.10798 7.10912 2.04372 7.09998C1.88991 7.10148 1.73936 7.05566 1.61247 6.96873C1.43262 6.8627 1.30223 6.6896 1.24997 6.48748C1.24997 6.48748 1.24997 6.48748 1.24997 6.45623L0.787469 3.12498C0.774071 3.02596 0.780428 2.92526 0.806175 2.82871C0.831921 2.73217 0.876545 2.64168 0.937469 2.56248C0.998404 2.48008 1.07507 2.41059 1.16305 2.35802C1.25102 2.30545 1.34854 2.27085 1.44997 2.25623H1.56872H1.70622C1.86492 2.28876 2.00986 2.36908 2.12158 2.48639C2.2333 2.6037 2.30646 2.75238 2.33122 2.91248L2.57497 4.61248L2.68747 5.36873L4.89372 4.80623C4.95795 4.79673 5.02323 4.79673 5.08747 4.80623H5.23122C5.35465 4.82869 5.47078 4.88079 5.56964 4.95804C5.66849 5.03529 5.74711 5.13538 5.79875 5.24972C5.85039 5.36406 5.8735 5.48922 5.86609 5.61446C5.85868 5.7397 5.82098 5.86127 5.75622 5.96873L5.76247 5.95623Z" fill="#699EFA"/>
<path d="M10.425 18.85C10.0742 18.8874 9.72161 18.9062 9.36878 18.9063C7.02364 18.9085 4.76021 18.045 3.01253 16.4813L2.98128 16.45C1.60412 14.9603 0.742916 13.067 0.525027 11.05C0.525027 11.05 0.525027 11 0.525027 10.9688C0.524514 10.7709 0.599058 10.5803 0.733616 10.4353C0.868174 10.2903 1.05273 10.2018 1.25003 10.1875H1.33753H1.47503C1.63944 10.2169 1.78964 10.2995 1.90255 10.4226C2.01546 10.5457 2.08484 10.7024 2.10003 10.8688C2.26601 12.4049 2.87879 13.8586 3.86253 15.05C3.91581 15.145 3.98566 15.2297 4.06878 15.3C4.81341 16.1378 5.7268 16.8088 6.749 17.2687C7.7712 17.7286 8.87912 17.9672 10 17.9688C10.2945 17.9677 10.5886 17.951 10.8813 17.9188C12.4094 17.7476 13.8554 17.1383 15.0452 16.1642C16.235 15.1902 17.1179 13.893 17.5875 12.4288C18.057 10.9646 18.0933 9.39583 17.6919 7.91149C17.2905 6.42715 16.4685 5.0905 15.325 4.06251C14.5777 3.22397 13.6608 2.55359 12.6352 2.09569C11.6095 1.6378 10.4983 1.40281 9.37503 1.40626C9.07844 1.40423 8.78201 1.42093 8.48753 1.45626C7.12103 1.60356 5.81641 2.10399 4.70194 2.90834C3.58747 3.71268 2.70155 4.79324 2.13128 6.04376C2.06994 6.1797 1.97068 6.29506 1.8454 6.37599C1.72013 6.45692 1.57417 6.49998 1.42503 6.50001C1.3773 6.50609 1.329 6.50609 1.28128 6.50001C1.24996 6.34175 1.26966 6.17763 1.33753 6.03126C2.01917 4.53155 3.07957 3.23516 4.41435 2.26969C5.74914 1.30422 7.31231 0.702935 8.95003 0.525012C9.2988 0.487861 9.64928 0.469085 10 0.468762C12.3473 0.464961 14.6132 1.32859 16.3625 2.89376C16.3727 2.89042 16.3836 2.89042 16.3938 2.89376C17.7709 4.38345 18.6321 6.27677 18.85 8.29376C18.99 9.5401 18.8831 10.8018 18.5355 12.0068C18.1878 13.2118 17.6062 14.3366 16.8239 15.3168C16.0415 16.2971 15.0738 17.1136 13.9759 17.7198C12.8779 18.3261 11.6714 18.7101 10.425 18.85Z" fill="#80C6FF"/>
<path d="M5.23747 4.79373C5.27076 4.98839 5.2303 5.18847 5.12397 5.35489C5.01765 5.52132 4.8531 5.64213 4.66247 5.69373L1.61247 6.47498C1.54821 6.48412 1.48298 6.48412 1.41872 6.47498H1.27497C1.27497 6.47498 1.27497 6.47498 1.27497 6.44373L0.787469 3.12498C0.774071 3.02596 0.780428 2.92526 0.806175 2.82871C0.831921 2.73217 0.876545 2.64168 0.937469 2.56248C0.998404 2.48008 1.07507 2.41059 1.16305 2.35802C1.25102 2.30545 1.34854 2.27085 1.44997 2.25623H1.56872H1.70622C1.70622 2.25623 1.70622 2.25623 1.70622 2.28748L2.06247 4.74373L2.57497 4.61248L2.68747 5.36873L4.89372 4.80623C4.95795 4.79673 5.02323 4.79673 5.08747 4.80623L5.23747 4.79373Z" fill="#80C6FF"/>
<path d="M13.75 12.9875C13.6753 13.0811 13.5801 13.1562 13.4717 13.2072C13.3634 13.2581 13.2447 13.2835 13.125 13.2812C12.9484 13.2799 12.7771 13.2206 12.6375 13.1125L9.51251 10.6125C9.41892 10.5378 9.34376 10.4426 9.29283 10.3342C9.24189 10.2259 9.21655 10.1072 9.21876 9.9875V5C9.21876 4.7928 9.30107 4.59409 9.44758 4.44757C9.5941 4.30106 9.79281 4.21875 10 4.21875C10.2072 4.21875 10.4059 4.30106 10.5524 4.44757C10.699 4.59409 10.7813 4.7928 10.7813 5V9.625L13.6125 11.875C13.7117 11.9543 13.7891 12.0576 13.8375 12.175C13.9015 12.3048 13.9273 12.4501 13.9118 12.594C13.8963 12.7378 13.8402 12.8743 13.75 12.9875Z" fill="#FFC166"/>
<path d="M13.8376 12.1875C13.8128 12.2504 13.7792 12.3093 13.7376 12.3625C13.6629 12.4561 13.5676 12.5312 13.4593 12.5822C13.3509 12.6331 13.2323 12.6585 13.1126 12.6562C12.936 12.6549 12.7647 12.5956 12.6251 12.4875L9.50006 9.9875C9.40647 9.9128 9.33131 9.81759 9.28038 9.70922C9.22944 9.60085 9.2041 9.48222 9.20631 9.3625V5C9.20631 4.7928 9.28862 4.59409 9.43513 4.44757C9.58165 4.30106 9.78036 4.21875 9.98756 4.21875C10.1948 4.21875 10.3935 4.30106 10.54 4.44757C10.6865 4.59409 10.7688 4.7928 10.7688 5V9.625L13.6126 11.875C13.7135 11.9578 13.791 12.0655 13.8376 12.1875Z" fill="#FFD64F"/>
</g>
<defs>
<clipPath id="clip0_9_756">
<rect width="20" height="20" fill="white"/>
</clipPath>
</defs>
</svg>
