<svg width="68" height="68" viewBox="0 0 68 68" fill="none" xmlns="http://www.w3.org/2000/svg">
<g clip-path="url(#clip0_25_7501)">
<path d="M68 34C68 50.6488 56.0333 64.5029 40.231 67.4296C38.2119 67.8044 36.1289 68 34 68C31.6602 68 29.376 67.7641 27.1695 67.3131C11.6655 64.1518 0 50.4379 0 34C0 24.9366 3.54716 16.6989 9.32981 10.6052C9.66423 10.2514 10.007 9.90582 10.3567 9.56715C16.4754 3.64424 24.8116 0 34 0C43.1884 0 51.5246 3.64424 57.6432 9.56715C57.7875 9.70594 57.9304 9.84752 58.072 9.98896C64.2073 16.1382 68 24.6272 68 34Z" fill="#1BA27A"/>
<path d="M40.2313 28.9305V21.3535H58.0722V9.56714H9.33005V21.3533H27.1697V28.9596C12.7593 29.6965 1.96387 32.7162 1.96387 36.3301C1.96387 39.9437 12.7593 42.9635 27.1697 43.7005V67.3131C29.3762 67.7641 31.6605 68 34.0002 68C36.1291 68 38.2121 67.8044 40.2313 67.4297V43.7296C54.9414 43.0468 66.0366 39.9937 66.0366 36.3301C66.0366 32.6664 54.9414 29.6133 40.2313 28.9305ZM34.0002 40.9874C17.9258 40.9874 4.89491 38.5658 4.89491 35.5779C4.89491 33.0273 14.3913 30.8887 27.1698 30.3183V38.9821C29.3361 39.2943 31.519 39.4511 33.7006 39.4511C35.8835 39.4511 38.0664 39.2943 40.2314 38.9821V30.2919C53.311 30.8234 63.1044 32.9869 63.1044 35.5778C63.1042 38.5657 50.0732 40.9874 34.0002 40.9874Z" fill="#F0EFEB"/>
</g>
<defs>
<clipPath id="clip0_25_7501">
<rect width="68" height="68" fill="white"/>
</clipPath>
</defs>
</svg>
