<svg width="68" height="68" viewBox="0 0 68 68" fill="none" xmlns="http://www.w3.org/2000/svg">
<g clip-path="url(#clip0_25_7510)">
<path d="M33.9998 0.512939C52.4943 0.512939 67.4869 15.5055 67.4869 34C67.4869 52.4946 52.4943 67.4871 33.9998 67.4871C15.5052 67.4871 0.512695 52.4946 0.512695 34C0.512695 15.5055 15.5052 0.512939 33.9998 0.512939Z" fill="#F0B90B"/>
<path d="M19.745 25.4941L34.014 11.2269L39.7028 16.9148L25.4365 31.182L19.745 25.4941ZM19.7558 42.5407L42.5566 19.7444L48.2453 25.4323L25.4472 48.2295L19.7558 42.5407ZM51.0794 28.2852L28.2858 51.0842L33.9737 56.773L56.7736 33.9739L51.0794 28.2852ZM11.2275 34.0116L16.9154 28.3237L22.6033 34.0116L16.9154 39.7004L11.2275 34.0116Z" fill="white"/>
</g>
<defs>
<clipPath id="clip0_25_7510">
<rect width="68" height="68" fill="white"/>
</clipPath>
</defs>
</svg>
