<svg width="68" height="68" viewBox="0 0 68 68" fill="none" xmlns="http://www.w3.org/2000/svg">
<g clip-path="url(#clip0_25_7522)">
<path d="M34.2676 67.6998C53.0071 67.6998 68.0812 52.7939 68.0812 34.2635C68.0812 15.7332 53.0071 0.827271 34.2676 0.827271C15.5282 0.827271 0.454102 15.7332 0.454102 34.2635C0.454102 52.7939 15.5282 67.6998 34.2676 67.6998Z" fill="#2775CA"/>
<path d="M43.5661 39.5564C43.5661 34.6814 40.6074 33.0096 34.6901 32.3108C30.4634 31.7524 29.618 30.639 29.618 28.6897C29.618 26.7403 31.0281 25.4865 33.8447 25.4865C36.3807 25.4865 37.7908 26.3224 38.4941 28.4121C38.6361 28.8301 39.0588 29.1076 39.4814 29.1076H41.7368C42.3015 29.1076 42.7242 28.6897 42.7242 28.1313V27.9908C42.1595 24.9247 39.6235 22.5574 36.3841 22.2799V18.9363C36.3841 18.3779 35.9615 17.96 35.2581 17.8229H33.1448C32.5801 17.8229 32.1574 18.2408 32.0188 18.9363V22.1395C27.7921 22.6979 25.1141 25.4831 25.1141 28.9672C25.1141 33.5647 27.9307 35.3769 33.8481 36.0724C37.7941 36.7679 39.0622 37.6038 39.0622 39.834C39.0622 42.0642 37.0908 43.5955 34.4128 43.5955C30.7508 43.5955 29.4828 42.0642 29.0601 39.9744C28.9181 39.416 28.4954 39.1385 28.0728 39.1385H25.6788C25.1141 39.1385 24.6914 39.5564 24.6914 40.1148V40.2553C25.2561 43.7393 27.5081 46.247 32.1574 46.9425V50.2861C32.1574 50.8445 32.5801 51.2625 33.2834 51.3996H35.3968C35.9615 51.3996 36.3841 50.9816 36.5228 50.2861V46.9425C40.7461 46.2437 43.5661 43.318 43.5661 39.5564Z" fill="white"/>
<path d="M27.0814 54.1849C16.092 50.2829 10.4553 38.1623 14.5433 27.4359C16.6567 21.5846 21.306 17.1275 27.0814 15.0377C27.6461 14.7602 27.9267 14.3423 27.9267 13.6435V11.6941C27.9267 11.1357 27.6461 10.7178 27.0814 10.5807C26.9394 10.5807 26.6587 10.5807 26.5167 10.7211C13.1333 14.9007 5.80593 28.9706 10.0326 42.208C12.5686 50.0087 18.628 56.0005 26.5167 58.5082C27.0814 58.7857 27.6427 58.5082 27.7847 57.9498C27.9267 57.8094 27.9267 57.6723 27.9267 57.3914V55.4421C27.9267 55.0208 27.5041 54.4658 27.0814 54.1849ZM42.0135 10.7178C41.4488 10.4403 40.8875 10.7178 40.7454 11.2762C40.6034 11.4166 40.6034 11.5537 40.6034 11.8345V13.7839C40.6034 14.3423 41.0261 14.8973 41.4488 15.1782C52.4382 19.0802 58.0749 31.2008 53.9868 41.9272C51.8735 47.7785 47.2241 52.2356 41.4488 54.3253C40.8841 54.6029 40.6034 55.0208 40.6034 55.7196V57.669C40.6034 58.2274 40.8841 58.6453 41.4488 58.7824C41.5908 58.7824 41.8714 58.7824 42.0135 58.642C55.3968 54.4624 62.7242 40.3925 58.4975 27.155C55.9615 19.2173 49.7635 13.2255 42.0135 10.7178Z" fill="white"/>
</g>
<defs>
<clipPath id="clip0_25_7522">
<rect width="68" height="68" fill="white"/>
</clipPath>
</defs>
</svg>
