<svg width="18" height="18" viewBox="0 0 18 18" fill="none" xmlns="http://www.w3.org/2000/svg">
<path d="M16.9418 12.7443C16.8492 12.5465 16.6506 12.4202 16.4323 12.4202H14.7237V5.01624C14.7237 4.70556 14.4719 4.45374 14.1612 4.45374H11.2712C10.9605 4.45374 10.7087 4.70556 10.7087 5.01624V12.4202H9.00001C8.78169 12.4202 8.58311 12.5465 8.49055 12.7443C8.39799 12.942 8.42824 13.1754 8.56808 13.343L12.2842 17.7976C12.3911 17.9258 12.5493 17.9998 12.7162 17.9998C12.883 17.9998 13.0412 17.9258 13.1481 17.7976L16.8643 13.343C17.0041 13.1754 17.0343 12.942 16.9418 12.7443Z" fill="white"/>
<path d="M9.50911 5.25471C9.60167 5.05699 9.57143 4.82357 9.43159 4.65592L5.71643 0.202306C5.60958 0.0742104 5.45135 0.00012207 5.28452 0.00012207H5.28449C5.11767 0.00012207 4.95947 0.0741752 4.85259 0.202235L1.13647 4.65585C0.996598 4.8235 0.966349 5.05692 1.05891 5.25468C1.15143 5.4524 1.35005 5.57874 1.56836 5.57874H3.27602V12.9827C3.27602 13.2934 3.52784 13.5452 3.83852 13.5452H6.7295C7.04017 13.5452 7.292 13.2934 7.292 12.9827V5.57874H8.99965C9.21797 5.57874 9.41655 5.45243 9.50911 5.25471Z" fill="white"/>
</svg>
