<svg width="45" height="45" viewBox="0 0 45 45" fill="none" xmlns="http://www.w3.org/2000/svg">
<g opacity="0.3" clip-path="url(#clip0_24_4310)">
<path d="M22.5 0C10.0583 0 0 10.0583 0 22.5C0 34.9417 10.0583 45 22.5 45C34.9417 45 45 34.9417 45 22.5C45 10.0583 34.9417 0 22.5 0ZM22.5 41.2638C12.1564 41.2638 3.7362 32.8436 3.7362 22.5C3.7362 12.1564 12.1564 3.7362 22.5 3.7362C32.8436 3.7362 41.2638 12.1564 41.2638 22.5C41.2638 32.8436 32.8436 41.2638 22.5 41.2638Z" fill="white"/>
<path d="M32.6505 12.3497C31.8867 11.5859 30.7364 11.5859 29.9726 12.3497L22.5002 19.8221L15.037 12.3589C14.2732 11.5951 13.1229 11.5951 12.3591 12.3589C11.5953 13.1227 11.5953 14.273 12.3591 15.0368L19.8223 22.5L12.3591 29.9632C11.5953 30.727 11.5677 31.9049 12.3591 32.6411C12.9573 33.1933 14.0892 33.5982 15.037 32.6411L22.5002 25.1779L29.9634 32.6411C31.1045 33.7178 32.264 33.0276 32.6413 32.6411C33.4051 31.8773 33.4051 30.727 32.6413 29.9632L25.1781 22.5L32.6413 15.0368C33.4143 14.2638 33.4143 13.1135 32.6505 12.3497Z" fill="white"/>
</g>
<defs>
<clipPath id="clip0_24_4310">
<rect width="45" height="45" fill="white"/>
</clipPath>
</defs>
</svg>
