<svg width="24" height="24" viewBox="0 0 24 24" fill="none" xmlns="http://www.w3.org/2000/svg">
<path d="M16.896 8.97596V18.384C16.896 19.4927 15.9888 20.4 14.88 20.4H8.16004C7.05131 20.4 6.14404 19.4927 6.14404 18.384V8.97596C6.14404 7.86723 7.05131 6.95996 8.16004 6.95996H14.88C15.9888 6.95996 16.896 7.86723 16.896 8.97596Z" fill="white"/>
<path d="M18.912 13.68C18.5409 13.68 18.24 13.3791 18.24 13.008V6.28797C18.24 5.91752 17.9386 5.61597 17.568 5.61597H10.848C10.4769 5.61597 10.176 5.31508 10.176 4.94397C10.176 4.57286 10.4769 4.27197 10.848 4.27197H17.568C18.6796 4.27197 19.584 5.17629 19.584 6.28797V13.008C19.584 13.3791 19.2831 13.68 18.912 13.68Z" fill="white"/>
</svg>
