<svg width="18" height="18" viewBox="0 0 18 18" fill="none" xmlns="http://www.w3.org/2000/svg">
<g opacity="0.5" clip-path="url(#clip0_4_3354)">
<path d="M9.00049 0C4.02577 0 0.000488281 4.02564 0.000488281 9C0.000488281 13.9747 4.02612 18 9.00049 18C13.9752 18 18.0005 13.9744 18.0005 9C18.0005 4.02528 13.9748 0 9.00049 0ZM9.00049 16.5938C4.80308 16.5938 1.40674 13.1971 1.40674 9C1.40674 4.80259 4.80336 1.40625 9.00049 1.40625C13.1979 1.40625 16.5942 4.80287 16.5942 9C16.5942 13.1974 13.1976 16.5938 9.00049 16.5938Z" fill="white"/>
<path d="M9.00049 7.53503C8.61215 7.53503 8.29736 7.84982 8.29736 8.23816V12.766C8.29736 13.1544 8.61215 13.4692 9.00049 13.4692C9.38882 13.4692 9.70361 13.1543 9.70361 12.766V8.23816C9.70361 7.84982 9.38882 7.53503 9.00049 7.53503Z" fill="white"/>
<path d="M9.00049 6.67407C9.52473 6.67407 9.94971 6.24909 9.94971 5.72485C9.94971 5.20061 9.52473 4.77563 9.00049 4.77563C8.47625 4.77563 8.05127 5.20061 8.05127 5.72485C8.05127 6.24909 8.47625 6.67407 9.00049 6.67407Z" fill="white"/>
</g>
<defs>
<clipPath id="clip0_4_3354">
<rect width="18" height="18" fill="white" transform="translate(0.000488281)"/>
</clipPath>
</defs>
</svg>
