<svg width="42" height="42" viewBox="0 0 42 42" fill="none" xmlns="http://www.w3.org/2000/svg">
<path d="M36.1339 4.67993L23.0171 14.4219L25.4427 8.67428L36.1339 4.67993Z" fill="#E2761B" stroke="#E2761B" stroke-linecap="round" stroke-linejoin="round"/>
<path d="M5.85293 4.67993L18.8642 14.5142L16.5573 8.67428L5.85293 4.67993ZM31.4141 27.2619L27.9207 32.614L35.3953 34.6705L37.5441 27.3805L31.4141 27.2619ZM4.46875 27.3805L6.60434 34.6705L14.0789 32.614L10.5855 27.2619L4.46875 27.3805Z" fill="#E4761B" stroke="#E4761B" stroke-linecap="round" stroke-linejoin="round"/>
<path d="M13.6571 18.2184L11.5742 21.3691L18.9961 21.6987L18.7324 13.7231L13.6571 18.2184ZM28.3294 18.2184L23.1882 13.6309L23.0168 21.6987L30.4254 21.3691L28.3294 18.2184ZM14.0789 32.6139L18.5347 30.4388L14.6853 27.4331L14.0789 32.6139ZM23.4518 30.4388L27.9207 32.6139L27.3011 27.4331L23.4518 30.4388Z" fill="#E4761B" stroke="#E4761B" stroke-linecap="round" stroke-linejoin="round"/>
<path d="M27.9209 32.6139L23.452 30.4387L23.8079 33.3521L23.7684 34.5781L27.9209 32.6139ZM14.0791 32.6139L18.2316 34.5781L18.2053 33.3521L18.5348 30.4387L14.0791 32.6139Z" fill="#D7C1B3" stroke="#D7C1B3" stroke-linecap="round" stroke-linejoin="round"/>
<path d="M18.2976 25.5084L14.5801 24.4142L17.2034 23.2146L18.2976 25.5084ZM23.6893 25.5084L24.7835 23.2146L27.42 24.4142L23.6893 25.5084Z" fill="#233447" stroke="#233447" stroke-linecap="round" stroke-linejoin="round"/>
<path d="M14.0789 32.614L14.7116 27.2618L10.5854 27.3804L14.0789 32.614ZM27.2879 27.2618L27.9207 32.614L31.4141 27.3804L27.2879 27.2618ZM30.4254 21.3691L23.0167 21.6987L23.7022 25.5085L24.7964 23.2147L27.4329 24.4143L30.4254 21.3691ZM14.5798 24.4143L17.2163 23.2147L18.2973 25.5085L18.996 21.6987L11.5741 21.3691L14.5798 24.4143Z" fill="#CD6116" stroke="#CD6116" stroke-linecap="round" stroke-linejoin="round"/>
<path d="M11.5742 21.3691L14.6853 27.4332L14.5799 24.4143L11.5742 21.3691ZM27.433 24.4143L27.3011 27.4332L30.4254 21.3691L27.433 24.4143ZM18.9961 21.6987L18.2974 25.5085L19.1674 30.0038L19.3652 24.0848L18.9961 21.6987ZM23.0168 21.6987L22.6608 24.0716L22.819 30.0038L23.7023 25.5085L23.0168 21.6987Z" fill="#E4751F" stroke="#E4751F" stroke-linecap="round" stroke-linejoin="round"/>
<path d="M23.7025 25.5085L22.8193 30.0038L23.452 30.4388L27.3014 27.4331L27.4332 24.4143L23.7025 25.5085ZM14.5801 24.4143L14.6855 27.4331L18.5349 30.4388L19.1676 30.0038L18.2976 25.5085L14.5801 24.4143Z" fill="#F6851B" stroke="#F6851B" stroke-linecap="round" stroke-linejoin="round"/>
<path d="M23.7684 34.5782L23.8079 33.3522L23.4783 33.0622H18.5085L18.2053 33.3522L18.2316 34.5782L14.0791 32.614L15.5292 33.8005L18.4689 35.8438H23.5179L26.4708 33.8005L27.9209 32.614L23.7684 34.5782Z" fill="#C0AD9E" stroke="#C0AD9E" stroke-linecap="round" stroke-linejoin="round"/>
<path d="M23.4518 30.4387L22.819 30.0037H19.1674L18.5346 30.4387L18.2051 33.3521L18.5083 33.062H23.4781L23.8077 33.3521L23.4518 30.4387Z" fill="#161616" stroke="#161616" stroke-linecap="round" stroke-linejoin="round"/>
<path d="M36.6872 15.0547L37.8077 9.67617L36.1335 4.67993L23.4518 14.0924L28.3294 18.2185L35.2239 20.2355L36.7531 18.4558L36.094 17.9812L37.1486 17.0189L36.3313 16.3861L37.3859 15.582L36.6872 15.0547ZM4.19189 9.67617L5.31242 15.0547L4.60056 15.582L5.65517 16.3861L4.85103 17.0189L5.90564 17.9812L5.24651 18.4558L6.76252 20.2355L13.6571 18.2185L18.5346 14.0924L5.85291 4.67993L4.19189 9.67617Z" fill="#763D16" stroke="#763D16" stroke-linecap="round" stroke-linejoin="round"/>
<path d="M35.2239 20.2355L28.3294 18.2186L30.4254 21.3692L27.3011 27.4333L31.4141 27.3805H37.5441L35.2239 20.2355ZM13.6571 18.2186L6.76254 20.2355L4.46875 27.3805H10.5855L14.6853 27.4333L11.5742 21.3692L13.6571 18.2186ZM23.0168 21.6988L23.4518 14.0924L25.4556 8.67432H16.5573L18.5347 14.0924L18.9961 21.6988L19.1542 24.098L19.1674 30.0039H22.819L22.8454 24.098L23.0168 21.6988Z" fill="#F6851B" stroke="#F6851B" stroke-linecap="round" stroke-linejoin="round"/>
</svg>
