<svg width="27" height="27" viewBox="0 0 27 27" fill="none" xmlns="http://www.w3.org/2000/svg">
<path d="M13.5 0C6.03856 0 0 6.03788 0 13.5C0 20.9613 6.03788 27 13.5 27C20.9614 27 27 20.9621 27 13.5C27 6.03856 20.9621 0 13.5 0ZM13.1005 19.8186C12.3364 19.8186 11.75 19.1789 11.75 18.4502C11.75 17.7039 12.3542 17.082 13.1005 17.082C13.8469 17.082 14.4688 17.7039 14.4688 18.4503C14.4688 19.1788 13.8646 19.8186 13.1005 19.8186ZM15.1263 12.906C14.1489 13.6701 14.1311 14.2032 14.1311 15.1272C14.1311 15.4649 13.9534 15.8559 13.0827 15.8559C12.3541 15.8559 12.1054 15.5893 12.1054 14.6653C12.1054 13.137 12.7807 12.4085 13.296 11.9642C13.8824 11.4666 14.8775 10.9158 14.8775 9.95625C14.8775 9.13876 14.1667 8.74784 13.2782 8.74784C11.4657 8.74784 11.8566 10.1162 10.897 10.1162C10.4172 10.1162 9.8308 9.79625 9.8308 9.10327C9.8308 8.14372 10.9325 6.72205 13.3315 6.72205C15.6061 6.72205 17.1165 7.98377 17.1165 9.65413C17.1165 11.3245 15.6061 12.5329 15.1263 12.906Z" fill="white"/>
</svg>
