<svg width="25" height="30" viewBox="0 0 25 30" fill="none" xmlns="http://www.w3.org/2000/svg">
<g clip-path="url(#clip0_45_216)">
<path d="M12.4558 1.87187L13.0933 1.02454C12.9108 0.879323 12.6866 0.800537 12.4558 0.800537C12.2251 0.800537 12.0009 0.879323 11.8183 1.02454L12.4558 1.87187ZM23.3805 5.17302L24.4231 5.19051C24.4253 5.04827 24.3999 4.90701 24.3485 4.77495C24.2971 4.64289 24.2206 4.52268 24.1236 4.42131C24.0265 4.31994 23.9108 4.23945 23.7833 4.18451C23.6557 4.12956 23.5188 4.10128 23.3805 4.1013V5.17302ZM12.4558 28.1281L11.8785 29.0206C12.0495 29.1379 12.2504 29.2004 12.4558 29.2004C12.6613 29.2004 12.8622 29.1379 13.0331 29.0206L12.4558 28.1281ZM1.5475 5.17302V4.1013C1.40925 4.10138 1.2724 4.12973 1.14491 4.18472C1.01742 4.2397 0.901826 4.32021 0.804864 4.42157C0.707903 4.52293 0.631507 4.64311 0.58012 4.77512C0.528734 4.90713 0.503383 5.04833 0.505543 5.19051L1.5475 5.17302ZM11.8183 2.7192C16.5479 6.4881 21.9595 6.24548 23.3812 6.24548V4.1013C21.9107 4.1013 17.1953 4.29218 13.0947 1.02454L11.8183 2.7192ZM22.3392 5.15554C22.2613 10.1346 22.0559 13.647 21.6642 16.2488C21.2767 18.8235 20.7235 20.3659 20.0109 21.45C19.2891 22.5757 18.3818 23.2438 17.0423 24.0685C15.6887 24.902 13.9795 25.8003 11.8793 27.2356L13.0338 29.0206C15.032 27.6509 16.698 26.7781 18.1126 25.9082C19.5385 25.0288 20.7922 24.0612 21.7378 22.6507C22.6927 21.198 23.3132 19.3051 23.7212 16.5766C24.1263 13.8751 24.3417 10.2169 24.4217 5.19051L22.3392 5.15554ZM13.0331 27.2356C10.9329 25.8003 9.22442 24.9042 7.87292 24.0685C6.53275 23.2445 5.62892 22.5764 4.90925 21.4508C4.20092 20.3674 3.647 18.8279 3.26096 16.2495C2.86996 13.647 2.66596 10.1346 2.58733 5.15554L0.503418 5.19051C0.58346 10.2177 0.797376 13.8751 1.20113 16.5759C1.60983 19.3044 2.22892 21.1972 3.18446 22.65C4.12725 24.0605 5.38029 25.0288 6.80475 25.9082C8.21717 26.7773 9.88246 27.6509 11.8814 29.0206L13.0331 27.2356ZM1.54538 6.24548C2.95283 6.24548 8.3645 6.4881 13.0912 2.7192L11.8162 1.02454C7.71496 4.29218 2.99958 4.1013 1.54538 4.1013V6.24548Z" fill="#3375BB"/>
</g>
<defs>
<clipPath id="clip0_45_216">
<rect width="25" height="30" fill="white"/>
</clipPath>
</defs>
</svg>
