<svg width="126" height="122" viewBox="0 0 126 122" fill="none" xmlns="http://www.w3.org/2000/svg">
<g clip-path="url(#clip0_45_28)">
<path d="M117.321 87.1846C118.555 88.4938 119.273 90.2072 119.344 92.0074C119.344 102.119 94.0212 110.312 62.7759 110.312C31.5305 110.312 6.22607 102.119 6.22607 92.0074C6.28167 90.2146 6.98043 88.5021 8.19398 87.1846C3.14423 90.5364 0.229492 94.4096 0.229492 98.5435C0.229492 111.392 28.2259 121.801 62.7388 121.801C97.2516 121.801 125.248 111.392 125.248 98.5435C125.285 94.4096 122.389 90.5364 117.321 87.1846Z" fill="black"/>
<path d="M93.5943 85.1921C94.2791 85.9364 94.6801 86.8991 94.7267 87.9108C94.7267 93.6275 80.45 98.2456 62.8316 98.2456C45.2131 98.2456 30.9365 93.6275 30.9365 87.9108C30.9831 86.8991 31.3841 85.9364 32.0689 85.1921C29.2284 87.0543 27.5947 89.2702 27.5947 91.5978C27.5947 98.8414 43.3752 104.633 62.8687 104.633C82.3623 104.633 98.1428 98.7669 98.1428 91.5978C98.0314 89.2702 96.379 87.0915 93.5943 85.1921Z" fill="black"/>
<path d="M89.2313 63.0889C89.2313 48.4341 62.7758 0.80127 62.7758 0.80127C62.7758 0.80127 36.3389 48.4341 36.3389 63.0889C36.5215 70.0023 39.3879 76.571 44.3276 81.396C49.2674 86.2211 55.89 88.9211 62.7851 88.9211C69.6802 88.9211 76.3028 86.2211 81.2425 81.396C86.1823 76.571 89.0487 70.0023 89.2313 63.0889Z" fill="black"/>
<path d="M48.4435 64.1689C48.4435 58.8992 49.1119 41.8236 49.1119 41.8236C49.1119 41.8236 42.6511 58.8992 42.6511 64.1689C42.6511 69.4387 45.5473 73.6843 49.1119 73.6843C52.6764 73.6843 48.4435 69.4946 48.4435 64.1689Z" fill="white"/>
</g>
<defs>
<clipPath id="clip0_45_28">
<rect width="125" height="121" fill="white" transform="translate(0.266602 0.80127)"/>
</clipPath>
</defs>
</svg>
