<svg width="105" height="130" viewBox="0 0 105 130" fill="none" xmlns="http://www.w3.org/2000/svg">
<g clip-path="url(#clip0_45_33)">
<path d="M95.3051 15.9726L93.1353 10.2616C93.084 7.70421 92.0247 5.27175 90.19 3.49812C88.3553 1.72448 85.8951 0.754583 83.3493 0.801295H47.1131C44.5673 0.754583 42.1072 1.72448 40.2725 3.49812C38.4378 5.27175 37.3785 7.70421 37.3272 10.2616L35.1574 16.147C32.2581 17.5344 29.5813 19.3491 27.2158 21.5311L26.9988 21.2913L20.294 14.5558L22.2469 12.594C22.3912 12.4519 22.5059 12.2823 22.5842 12.0952C22.6625 11.908 22.7028 11.7071 22.7028 11.5041C22.7028 11.3011 22.6625 11.1001 22.5842 10.913C22.5059 10.7258 22.3912 10.5562 22.2469 10.4142L17.9072 6.05459C17.6187 5.76707 17.2287 5.60573 16.8223 5.60573C16.4159 5.60573 16.0259 5.76707 15.7374 6.05459L13.0902 8.71394L6.03823 15.7983L0.59193 21.2477C0.315788 21.5428 0.162109 21.9326 0.162109 22.3376C0.162109 22.7426 0.315788 23.1324 0.59193 23.4275L4.93159 27.7871C5.07301 27.9321 5.24187 28.0473 5.42816 28.1259C5.61445 28.2046 5.81444 28.2451 6.01651 28.2451C6.21858 28.2451 6.41863 28.2046 6.60492 28.1259C6.79121 28.0473 6.96 27.9321 7.10142 27.7871L9.05432 25.8471L15.7591 32.5608C11.0506 37.7487 7.4486 42.6751 7.4486 44.7895V119.905C7.44575 121.198 7.69675 122.479 8.18727 123.674C8.67778 124.869 9.39818 125.955 10.3072 126.871C11.2162 127.786 12.2959 128.512 13.4846 129.007C14.6733 129.503 15.9476 129.758 17.2346 129.758H94.2853C96.8864 129.758 99.381 128.72 101.22 126.872C103.06 125.024 104.093 122.518 104.093 119.905V25.7163C104.089 23.2874 103.188 20.9464 101.565 19.1464C99.9412 17.3464 97.7108 16.2155 95.3051 15.9726ZM44.0971 15.9726L45.0952 13.1607C45.4219 12.2594 45.5908 11.308 45.5943 10.3488C45.6534 9.97067 45.8558 9.63019 46.1591 9.3986C46.4624 9.16701 46.8432 9.06226 47.2216 9.10629H83.4578C83.8362 9.06226 84.217 9.16701 84.5203 9.3986C84.8236 9.63019 85.0261 9.97067 85.0852 10.3488C85.0886 11.308 85.2575 12.2594 85.5842 13.1607L86.5823 15.9726H44.0971Z" fill="#D12832"/>
<path d="M84.8249 104.472C85.2321 104.984 85.4238 105.635 85.3589 106.287C85.294 106.939 84.9777 107.539 84.4777 107.96C84.2278 108.168 83.9393 108.324 83.6288 108.419C83.3184 108.514 82.9923 108.547 82.6693 108.514C82.3464 108.482 82.0331 108.385 81.7475 108.23C81.462 108.075 81.21 107.865 81.006 107.611L61.8247 84.0039H50.0859L30.9263 107.611C30.7306 107.89 30.4798 108.126 30.1894 108.303C29.899 108.481 29.5754 108.596 29.2386 108.643C28.9018 108.689 28.5592 108.665 28.232 108.572C27.9049 108.48 27.6002 108.32 27.3371 108.104C27.0741 107.888 26.8582 107.619 26.703 107.316C26.5477 107.012 26.4565 106.679 26.4349 106.338C26.4134 105.997 26.4619 105.656 26.5776 105.335C26.6933 105.014 26.8736 104.72 27.1074 104.472L46.6358 80.3636V65.3449L27.1074 41.2146C26.9003 40.9635 26.7449 40.6737 26.6502 40.3618C26.5555 40.05 26.5233 39.7223 26.5556 39.3979C26.5879 39.0735 26.684 38.7587 26.8383 38.4718C26.9926 38.185 27.2021 37.9318 27.4545 37.7269C27.9638 37.3178 28.6123 37.1252 29.2612 37.1904C29.91 37.2556 30.5077 37.5734 30.9263 38.0757L50.1076 61.7046H61.8247L81.006 38.0757C81.4358 37.6197 82.0214 37.3441 82.6452 37.3043C83.2691 37.2645 83.8847 37.4634 84.3685 37.861C84.8523 38.2586 85.1683 38.8255 85.253 39.4477C85.3376 40.0698 85.1847 40.7011 84.8249 41.2146L65.2964 65.3449V80.3636L84.8249 104.472Z" fill="#FFBB26"/>
<path d="M27.1507 21.2913L20.446 14.5557L22.3988 12.5939C22.5431 12.4519 22.6578 12.2823 22.736 12.0952C22.8143 11.908 22.8546 11.707 22.8546 11.504C22.8546 11.301 22.8143 11.1001 22.736 10.9129C22.6578 10.7258 22.5431 10.5562 22.3988 10.4142L18.0591 6.05457C17.7706 5.76705 17.3806 5.60571 16.9742 5.60571C16.5678 5.60571 16.1778 5.76705 15.8893 6.05457L13.2421 8.71392L6.19015 15.7982L0.743852 21.2477C0.467709 21.5428 0.313965 21.9326 0.313965 22.3376C0.313965 22.7426 0.467709 23.1324 0.743852 23.4275L5.08351 27.7871C5.22493 27.9321 5.39372 28.0473 5.58002 28.1259C5.76631 28.2046 5.96636 28.2451 6.16843 28.2451C6.3705 28.2451 6.57055 28.2046 6.75684 28.1259C6.94313 28.0473 7.11192 27.9321 7.25335 27.7871L9.20618 25.8471L15.911 32.5608L27.3243 21.4657L27.1507 21.2913Z" fill="#FFBB26"/>
<path d="M22.3988 12.5939C22.5431 12.4519 22.6578 12.2823 22.736 12.0952C22.8143 11.908 22.8546 11.707 22.8546 11.504C22.8546 11.301 22.8143 11.1001 22.736 10.9129C22.6578 10.7258 22.5431 10.5562 22.3988 10.4142L18.0591 6.05457C17.7706 5.76705 17.3806 5.60571 16.9742 5.60571C16.5678 5.60571 16.1778 5.76705 15.8893 6.05457L13.2421 8.71392L6.19015 15.7982L0.743852 21.2477C0.467709 21.5428 0.313965 21.9326 0.313965 22.3376C0.313965 22.7426 0.467709 23.1324 0.743852 23.4275L5.08351 27.7871C5.22493 27.9321 5.39372 28.0473 5.58002 28.1259C5.76631 28.2046 5.96636 28.2451 6.16843 28.2451C6.3705 28.2451 6.57055 28.2046 6.75684 28.1259C6.94313 28.0473 7.11192 27.9321 7.25335 27.7871L9.20618 25.8471L20.446 14.534L22.3988 12.5939Z" fill="#D12832"/>
<path d="M93.2438 10.2616C93.1925 7.70421 92.1332 5.27175 90.2985 3.49812C88.4638 1.72448 86.0036 0.754583 83.4578 0.801295H47.2217C44.6759 0.754583 42.2156 1.72448 40.3809 3.49812C38.5463 5.27175 37.487 7.70421 37.4357 10.2616L35.2659 16.147L44.0537 15.8854L45.0518 13.0735C45.3786 12.1722 45.5474 11.2208 45.5508 10.2616C45.6099 9.88348 45.8124 9.54299 46.1157 9.3114C46.419 9.07981 46.7998 8.97507 47.1782 9.01911H83.4144C83.7929 8.97507 84.1736 9.07981 84.477 9.3114C84.7803 9.54299 84.9827 9.88348 85.0418 10.2616C85.0453 11.2208 85.2141 12.1722 85.5409 13.0735L86.539 15.8854H95.2183L93.2438 10.2616Z" fill="#FFBB26"/>
<path d="M15.2601 97.475C15.2601 99.1535 14.7827 100.527 14.1751 100.527H12.7214C12.1138 100.527 11.6365 99.1535 11.6365 97.475V48.3208C11.6365 46.6205 12.1138 45.269 12.7214 45.269H14.1751C14.7827 45.269 15.2601 46.6205 15.2601 48.3208V97.475Z" fill="white"/>
<path d="M63.9294 19.1115C65.6002 19.1115 66.9672 19.6128 66.9672 20.2013V21.6618C66.9672 22.2722 65.6002 22.7735 63.9294 22.7735H36.6112C34.9405 22.7735 33.5735 22.2722 33.5735 21.6618V20.2013C33.5735 19.6128 34.9405 19.1115 36.6112 19.1115H63.9294Z" fill="white"/>
</g>
<defs>
<clipPath id="clip0_45_33">
<rect width="104" height="129" fill="white" transform="translate(0.266602 0.80127)"/>
</clipPath>
</defs>
</svg>
