<svg width="98" height="135" viewBox="0 0 98 135" fill="none" xmlns="http://www.w3.org/2000/svg">
<g clip-path="url(#clip0_45_41)">
<path d="M89.4977 72.6754C87.2205 66.8482 83.7632 61.5446 79.3388 57.0912C74.9144 52.6379 69.6166 49.1292 63.7718 46.7812C57.6222 26.3705 89.9897 14.2865 97.3077 13.1289C97.3077 13.1289 93.8639 3.98974 92.6135 0.943359C48.4797 8.03126 20.3145 42.496 7.54377 64.6533C3.31449 71.2388 0.857578 78.7875 0.407058 86.5803C-0.0434623 94.373 1.52744 102.15 4.9701 109.171C8.41276 116.192 13.6125 122.223 20.074 126.689C26.5355 131.155 34.0435 133.907 41.8828 134.684C49.7221 135.46 57.6316 134.235 64.8577 131.126C72.0838 128.016 78.386 123.125 83.1637 116.918C87.9415 110.712 91.0357 103.397 92.1516 95.6699C93.2675 87.9431 92.368 80.0618 89.5387 72.777L89.4977 72.6754Z" fill="#252E3E"/>
<path d="M46.4297 130.76C38.8725 130.774 31.4509 128.77 24.9453 124.96C18.4397 121.15 13.0904 115.674 9.45965 109.107C5.82892 102.54 4.05095 95.1256 4.31257 87.6426C4.5742 80.1597 6.86578 72.8848 10.9464 66.5827C20.1094 50.7212 45.6918 13.9413 90.0101 5.26929L91.8755 10.2044C83.471 12.8446 69.0604 19.4654 62.4598 29.9043C60.7212 32.5044 59.586 35.4539 59.1359 38.5407C58.6857 41.6275 58.9318 44.7748 59.8564 47.7561L60.4099 49.6245L62.2343 50.3557C67.5603 52.5033 72.3876 55.7061 76.42 59.7676C80.4525 63.8291 83.6051 68.6638 85.6848 73.9753C88.1496 80.2911 89.0238 87.1069 88.2319 93.8327C87.44 100.559 85.0058 106.992 81.1399 112.576C77.274 118.16 72.0929 122.727 66.045 125.881C59.997 129.036 53.2644 130.682 46.4297 130.678V130.76Z" fill="white"/>
<path d="M87.5297 87.9276C87.5213 85.0805 87.2122 82.242 86.6073 79.4587C74.6695 84.4151 61.362 85.0973 48.9716 81.388C35.0478 77.2154 20.2544 76.7878 6.1088 80.1492C5.59207 82.7104 5.33115 85.3157 5.32983 87.9276C5.32983 98.7272 9.65997 109.084 17.3677 116.721C25.0754 124.357 35.5294 128.648 46.4298 128.648C57.3302 128.648 67.7841 124.357 75.4918 116.721C83.1996 109.084 87.5297 98.7272 87.5297 87.9276Z" fill="#FFBB26"/>
<path d="M75.4765 94.7312C74.5434 94.2189 73.4454 94.0873 72.4158 94.3641C71.3862 94.6409 70.5061 95.3044 69.9624 96.2138L69.8394 96.4981L64.9401 96.884C64.6065 96.4057 64.1731 96.004 63.6692 95.706C63.046 95.3495 62.339 95.1619 61.6194 95.1619C60.8997 95.1619 60.1927 95.3495 59.5695 95.706L55.0393 93.1268C55.2724 91.8623 55.0463 90.5568 54.4009 89.4416C53.7556 88.3265 52.7327 87.4736 51.5135 87.034V83.2565C51.8518 83.1391 52.1807 82.9965 52.4974 82.83C53.1529 82.4553 53.7275 81.9563 54.1883 81.3616C54.6492 80.7669 54.9873 80.0881 55.1833 79.3639C55.3794 78.6397 55.4296 77.8844 55.331 77.141C55.2324 76.3976 54.987 75.6807 54.6088 75.0313C54.2305 74.3819 53.7269 73.8126 53.1267 73.356C52.5264 72.8994 51.8413 72.5645 51.1103 72.3702C49.6341 71.9779 48.0611 72.1827 46.7373 72.9395C46.4651 73.0865 46.2107 73.2636 45.9788 73.4675L42.822 71.66C42.8422 71.3557 42.8422 71.0504 42.822 70.7461C42.8221 69.5855 42.4651 68.4525 41.7985 67.4982C41.1319 66.5439 40.1875 65.8136 39.0913 65.4047V60.2056C39.702 59.8564 40.2115 59.3571 40.5706 58.7559C40.9297 58.1546 41.1262 57.4718 41.1411 56.7733C41.1512 56.5907 41.1512 56.4076 41.1411 56.225L45.4663 52.8333C45.9282 53.0211 46.4225 53.1177 46.9217 53.1177C47.7326 53.1177 48.5252 52.8795 49.1994 52.4332C49.8736 51.9868 50.3991 51.3524 50.7094 50.6102C51.0197 49.868 51.1009 49.0513 50.9427 48.2634C50.7845 47.4755 50.3941 46.7517 49.8207 46.1837C49.2473 45.6156 48.5169 45.2288 47.7216 45.0721C46.9263 44.9153 46.102 44.9958 45.3529 45.3032C44.6037 45.6106 43.9634 46.1313 43.5129 46.7992C43.0624 47.4672 42.822 48.2525 42.822 49.0558C42.8118 49.2385 42.8118 49.4216 42.822 49.6042L38.4968 52.9958C38.032 52.8179 37.5395 52.7217 37.0414 52.7115C35.9541 52.7115 34.9113 53.1394 34.1424 53.9012C33.3736 54.6629 32.9416 55.6961 32.9416 56.7733C32.9566 57.4718 33.153 58.1546 33.5121 58.7559C33.8712 59.3571 34.3808 59.8564 34.9915 60.2056V65.4047C33.8969 65.816 32.9541 66.5469 32.2879 67.5007C31.6217 68.4545 31.2635 69.5862 31.2607 70.7461C31.2406 71.0572 31.2406 71.3692 31.2607 71.6803L27.7759 73.7112C27.5376 73.4945 27.2765 73.3039 26.997 73.1425C26.3561 72.5374 25.583 72.0868 24.7378 71.8256C23.8926 71.5645 22.998 71.5 22.1235 71.6369C21.249 71.7739 20.4182 72.1088 19.6955 72.6155C18.9728 73.1223 18.3778 73.7872 17.9566 74.5587C17.5354 75.3303 17.2993 76.1876 17.2668 77.0642C17.2343 77.9408 17.4062 78.813 17.7691 79.6131C18.132 80.4132 18.6762 81.1196 19.3594 81.6775C20.0425 82.2354 20.8463 82.6298 21.7083 82.83C22.0242 83.0039 22.3531 83.1533 22.6923 83.2768V86.7294C21.9161 86.9902 21.205 87.4121 20.6066 87.967C20.0081 88.5218 19.5361 89.1968 19.222 89.9468C18.9079 90.6969 18.7589 91.5047 18.7851 92.3163C18.8113 93.1279 19.012 93.9246 19.3739 94.6533C19.7357 95.3819 20.2503 96.0256 20.8833 96.5414C21.5163 97.0573 22.2531 97.4333 23.0445 97.6445C23.836 97.8556 24.6638 97.897 25.4726 97.7659C26.2815 97.6347 27.0528 97.3341 27.735 96.884C28.0004 96.7266 28.2539 96.5501 28.4934 96.3559L31.6502 98.1635C31.6301 98.4678 31.6301 98.7731 31.6502 99.0774C31.7379 100.535 32.384 101.904 33.4566 102.905C34.5291 103.906 35.9471 104.464 37.4206 104.464C38.8942 104.464 40.3121 103.906 41.3846 102.905C42.4571 101.904 43.1033 100.535 43.191 99.0774C43.1885 98.7633 43.1541 98.4504 43.0885 98.1431L45.9378 96.5184C46.1717 96.7106 46.4182 96.887 46.6758 97.0465C47.689 97.6209 48.8541 97.8779 50.0177 97.7836C51.1812 97.6894 52.2887 97.2483 53.1943 96.5184L57.7451 99.118C57.76 99.8165 57.9565 100.499 58.3156 101.101C58.6747 101.702 59.1842 102.201 59.7949 102.55C59.8875 102.582 59.9767 102.623 60.0614 102.672L60.4714 107.262C60.0077 107.593 59.6171 108.015 59.3235 108.501C58.8696 109.181 58.633 109.981 58.6445 110.797C58.656 111.613 58.9151 112.406 59.388 113.073C59.8609 113.741 60.5258 114.252 61.296 114.54C62.0662 114.828 62.9061 114.88 63.7063 114.689C64.5066 114.497 65.2301 114.071 65.7827 113.467C66.3353 112.862 66.6914 112.107 66.8047 111.299C66.9179 110.491 66.783 109.668 66.4175 108.937C66.0521 108.206 65.473 107.601 64.7557 107.201L64.4277 107.059L64.0382 102.51C64.5231 102.173 64.9287 101.737 65.2271 101.23L65.3501 100.986L70.2698 100.58C70.5929 101.05 71.0207 101.439 71.5202 101.718C71.9786 102.087 72.5124 102.355 73.0849 102.501C73.6574 102.647 74.2551 102.669 74.8369 102.565C75.4188 102.462 75.971 102.234 76.4558 101.899C76.9407 101.564 77.3465 101.128 77.6456 100.623C77.9447 100.118 78.13 99.5544 78.1887 98.9715C78.2475 98.3887 78.1782 97.8001 77.9858 97.2462C77.7934 96.6924 77.4823 96.1863 77.074 95.7627C76.6656 95.3391 76.1696 95.008 75.62 94.7921L75.4765 94.7312ZM44.4414 89.3493C43.7747 90.4905 43.542 91.8304 43.7854 93.1268L40.9156 94.7718C39.9053 93.9307 38.6275 93.4703 37.3078 93.472C35.9777 93.4811 34.6905 93.9397 33.6591 94.7718L30.5023 92.9643C30.7055 91.6657 30.4675 90.3369 29.8258 89.1868C29.1361 88.0079 28.0353 87.1195 26.7305 86.6888V83.1956C27.9277 82.7391 28.9275 81.8848 29.5593 80.7788C30.22 79.6503 30.4594 78.3276 30.2358 77.0419L33.7616 75.011C34.781 75.85 36.0645 76.3093 37.3898 76.3093C38.7151 76.3093 39.9987 75.85 41.0182 75.011L44.1954 76.8185C43.9719 78.0929 44.1984 79.4046 44.8369 80.5329C45.4754 81.6611 46.4867 82.5369 47.7007 83.0128V86.7903C46.3315 87.2132 45.1698 88.1252 44.4414 89.3493Z" fill="#D12832"/>
</g>
<defs>
<clipPath id="clip0_45_41">
<rect width="97" height="134" fill="white" transform="translate(0.266602 0.80127)"/>
</clipPath>
</defs>
</svg>
