<svg width="200" height="82" viewBox="0 0 200 82" fill="none" xmlns="http://www.w3.org/2000/svg">
<g clip-path="url(#clip0_45_46)">
<path d="M73.1567 26.184L45.698 24.3348L10.7996 33.3752L7.88086 22.1695L43.6993 12.8921C44.304 12.7321 44.9312 12.6733 45.5552 12.7182L73.8705 14.6306L73.1567 26.184Z" fill="#3D4C66"/>
<path d="M180.485 58.0308L172.871 69.3154L191.716 81.8013L199.267 70.4692L180.485 58.0308Z" fill="#252E3E"/>
<path d="M141.906 66.992C142.455 66.7195 142.929 66.3181 143.287 65.8224L143.588 65.4115C140.701 60.1801 136.925 53.3682 134.657 49.4802C134.378 49.0142 134.071 48.5656 133.737 48.1368L129.2 44.5016C128.427 44.1507 127.619 43.8806 126.789 43.6956C124.916 43.305 122.989 43.2409 121.094 43.5059L117.208 47.1094C116.704 47.8972 116.506 48.8417 116.653 49.7647C116.737 50.2694 116.921 50.7527 117.193 51.1866C117.465 51.6206 117.821 51.9967 118.239 52.2934L118.636 52.5621C120.642 51.3778 122.981 50.8784 125.298 51.1397C126.16 51.3357 126.97 51.7136 127.674 52.248C128.377 52.7824 128.957 53.4608 129.375 54.2375C131.088 57.1772 133.737 61.4761 136.196 65.4431L137.877 66.6601C138.454 67.0784 139.134 67.3306 139.845 67.3891C140.556 67.4477 141.269 67.3103 141.906 66.992Z" fill="#252E3E"/>
<path d="M79.7873 28.7286C79.4482 27.3341 79.6227 25.8647 80.2791 24.5877L87.3222 12.1967L77.1541 11.5645L76.0278 29.8191L80.0253 30.072C79.9142 29.582 79.7873 29.1079 79.7873 28.7286Z" fill="#FFBB26"/>
<path d="M177.423 52.91L174.251 50.7764C174.036 51.7886 173.615 52.7462 173.013 53.5896L172.871 53.7635L161.386 65.3959L166.526 68.9362C167.031 69.2683 167.648 69.3882 168.242 69.2698C168.836 69.1514 169.359 68.8044 169.698 68.304L177.947 56.1184C178.302 55.623 178.446 55.0078 178.348 54.4068C178.25 53.8058 177.918 53.2678 177.423 52.91Z" fill="#FFBB26"/>
<path d="M132.658 17.3016L133.864 20.4626L169.651 45.8453C170.562 46.5091 171.171 47.5054 171.347 48.6161C171.522 49.7269 171.249 50.8617 170.587 51.7721L142.684 79.9996C142.352 80.45 141.935 80.831 141.456 81.1208C140.977 81.4107 140.446 81.6037 139.892 81.6888C139.338 81.7739 138.773 81.7495 138.228 81.617C137.684 81.4844 137.171 81.2463 136.719 80.9163L90.3044 47.0938C88.4008 45.7188 81.5005 28.128 82.8805 26.1998L95.5709 3.94653C95.7819 3.35812 96.1076 2.81707 96.5292 2.35449C96.9508 1.89191 97.46 1.51692 98.0275 1.25108C98.5951 0.985236 99.2098 0.83378 99.8362 0.805423C100.463 0.777065 101.089 0.872365 101.678 1.08584L129.851 11.2326C131.028 11.6699 131.984 12.5535 132.51 13.6905C133.036 14.8275 133.089 16.1256 132.658 17.3016ZM148.283 55.8181L128.486 40.0133C126.984 38.9365 125.114 38.4981 123.288 38.7944C121.462 39.0908 119.828 40.0977 118.747 41.5937L114.828 45.2131C113.747 46.7122 113.306 48.5776 113.604 50.4C113.901 52.2223 114.912 53.8526 116.415 54.9331L136.101 69.2681C137.607 70.3416 139.478 70.7779 141.305 70.4818C143.133 70.1857 144.769 69.1812 145.856 67.6876L149.854 65.5539C150.397 64.8136 150.787 63.9733 151.002 63.0818C151.217 62.1902 151.252 61.265 151.106 60.3597C150.96 59.4544 150.636 58.5869 150.151 57.8074C149.667 57.0278 149.032 56.3517 148.283 55.8181Z" fill="#D12832"/>
<path d="M7.86493 37.9585C7.86493 37.9585 0.266602 51.5349 0.266602 55.7232C0.35591 57.6691 1.19462 59.5059 2.60831 60.8514C4.02201 62.197 5.90188 62.9479 7.85699 62.9479C9.8121 62.9479 11.692 62.197 13.1057 60.8514C14.5194 59.5059 15.3581 57.6691 15.4474 55.7232C15.4474 51.5349 7.86493 37.9585 7.86493 37.9585ZM4.93028 58.7419C3.43917 58.7419 2.24945 56.956 2.26532 54.7749C2.28118 52.5938 5.05719 45.5132 5.05719 45.5132C5.05719 45.5132 4.70821 52.6096 4.69235 54.7907C4.67649 56.9718 6.4214 58.7577 4.93028 58.7419Z" fill="#FFBB26"/>
<path d="M37.1162 16.8749C38.2901 16.543 39.3529 16.622 39.4639 17.0487L39.7494 18.076C39.8763 18.487 39.0039 19.1033 37.83 19.4352L18.5883 24.7773C17.4145 25.1092 16.3517 25.0302 16.2406 24.6034L15.9551 23.5919C15.8282 23.1652 16.6848 22.5488 17.8745 22.2327L37.1162 16.8749Z" fill="white"/>
<path d="M121.285 10.2841C122.427 10.6951 123.252 11.3589 123.093 11.8646L122.744 12.8603C122.585 13.2712 121.538 13.2712 120.381 12.8603L101.583 6.03262C100.441 5.62169 99.616 4.95789 99.7587 4.54696L100.124 3.55125C100.282 3.12452 101.329 3.12452 102.487 3.55125L121.285 10.2841Z" fill="white"/>
</g>
<defs>
<clipPath id="clip0_45_46">
<rect width="199" height="81" fill="white" transform="translate(0.266602 0.80127)"/>
</clipPath>
</defs>
</svg>
