<svg width="105" height="120" viewBox="0 0 105 120" fill="none" xmlns="http://www.w3.org/2000/svg">
<g clip-path="url(#clip0_45_56)">
<path d="M99.2218 103.405H42.3235V107.435H99.2218V103.405Z" fill="#252E3E"/>
<path d="M105 109.289H36.5452V120.022H105V109.289Z" fill="#D12832"/>
<path d="M95.8153 0.107666H45.7516C43.3137 0.113373 40.9775 1.08545 39.2557 2.81065C37.5338 4.53585 36.5668 6.8733 36.5668 9.31025V17.3059H32.9015C31.7579 17.3059 30.6611 17.7601 29.8524 18.5684C29.0437 19.3768 28.5894 20.4731 28.5894 21.6163V23.4482C27.3941 24.0049 26.3821 24.8904 25.6719 26.0011C24.9617 27.1117 24.5827 28.4016 24.5791 29.7197V34.0301C24.5791 47.1551 16.7958 58.7068 9.96106 68.9008C4.98056 76.3146 0.690009 82.6939 0.0647523 88.6422C-0.221071 90.922 -0.0232006 93.2364 0.645474 95.4347C1.31415 97.633 2.43863 99.6658 3.94565 101.401C5.35202 102.93 7.06709 104.143 8.9775 104.961C10.8879 105.778 12.9501 106.181 15.0278 106.142C23.9754 106.142 29.9908 99.2025 29.9908 88.9008V43.6421H36.5668V101.616H105.022V9.2025C104.993 6.78054 104.011 4.46742 102.287 2.76483C100.564 1.06225 98.2384 0.1075 95.8153 0.107666ZM24.6654 88.9654C24.6654 94.7197 22.1428 100.84 15.0709 100.84C13.7447 100.88 12.4254 100.634 11.2019 100.121C9.97834 99.6085 8.87889 98.8395 7.97748 97.8663C6.96905 96.6917 6.22561 95.3137 5.79775 93.8261C5.36989 92.3385 5.26766 90.7762 5.49802 89.2456C5.97235 84.612 9.91793 78.7499 14.4888 72.0042C18.2674 66.6288 21.6678 60.9974 24.6654 55.1508V88.9654Z" fill="#D12832"/>
<path d="M87.967 9.87061H53.5995C50.1106 9.87061 47.2822 12.6978 47.2822 16.1853V34.3749C47.2822 37.8624 50.1106 40.6896 53.5995 40.6896H87.967C91.4559 40.6896 94.2843 37.8624 94.2843 34.3749V16.1853C94.2843 12.6978 91.4559 9.87061 87.967 9.87061Z" fill="#FFBB26"/>
<path d="M36.5666 17.1982H32.9013C31.7577 17.1982 30.6609 17.6524 29.8522 18.4607C29.0435 19.2691 28.5892 20.3654 28.5892 21.5086V23.3405C27.3939 23.8972 26.382 24.7827 25.6718 25.8934C24.9616 27.004 24.5825 28.2939 24.579 29.612V33.9224C24.579 47.0474 16.7956 58.5991 9.9609 68.7931C4.98041 76.2069 0.689851 82.5862 0.0645942 88.5344C-0.236904 90.8315 -0.0468396 93.1663 0.622205 95.3844C1.29125 97.6025 2.42401 99.6532 3.9455 101.401C5.35186 102.93 7.06694 104.143 8.97734 104.961C10.8877 105.778 12.9499 106.181 15.0276 106.142C23.9753 106.142 29.9907 99.2025 29.9907 88.9008V43.6422H36.5666V17.1982ZM24.6221 88.8577C24.6221 94.612 22.0995 100.733 15.0276 100.733C13.7014 100.772 12.3821 100.527 11.1586 100.014C9.93506 99.5007 8.83561 98.7318 7.9342 97.7586C6.92577 96.584 6.18233 95.206 5.75447 93.7184C5.32661 92.2308 5.22438 90.6685 5.45474 89.1379C5.92907 84.5043 9.87465 78.6422 14.4455 71.8965C18.2241 66.5211 21.6245 60.8897 24.6221 55.0431V88.8577Z" fill="#3D4C66"/>
<path d="M80.9816 13.0388C82.6418 13.0388 84.0001 13.513 84.0001 14.1164V15.5604C84.0001 16.1638 82.6418 16.6595 80.9816 16.6595H53.9015C52.2414 16.6595 50.8831 16.1638 50.8831 15.5604V14.1164C50.8831 13.513 52.2414 13.0388 53.9015 13.0388H80.9816Z" fill="white"/>
</g>
<defs>
<clipPath id="clip0_45_56">
<rect width="105" height="120" fill="white"/>
</clipPath>
</defs>
</svg>
