<svg width="190" height="92" viewBox="0 0 190 92" fill="none" xmlns="http://www.w3.org/2000/svg">
<g clip-path="url(#clip0_45_63)">
<path d="M23.185 9.48097H106.195C109.239 9.47821 112.253 10.0768 115.066 11.2425C117.879 12.4082 120.435 14.1181 122.588 16.2746C124.741 18.4311 126.449 20.9918 127.615 23.8104C128.78 26.6289 129.38 29.6501 129.38 32.7012V37.7564C129.383 40.8075 128.786 43.8292 127.623 46.6488C126.46 49.4685 124.754 52.0307 122.603 54.1891C120.451 56.3476 117.897 58.0598 115.085 59.2281C112.273 60.3963 109.26 60.9976 106.216 60.9976H23.1641C20.1204 60.9976 17.1065 60.3963 14.2948 59.2281C11.483 58.0598 8.92847 56.3476 6.77721 54.1891C4.62595 52.0307 2.92014 49.4685 1.75726 46.6488C0.594388 43.8292 -0.00274006 40.8075 9.45213e-06 37.7564V32.7012C0.00555587 26.5409 2.45071 20.6348 6.79814 16.2807C11.1456 11.9267 17.0396 9.48096 23.185 9.48097Z" fill="#D12832"/>
<path d="M4.93838 31.3379C4.54991 31.3379 4.17733 31.1832 3.90263 30.9078C3.62794 30.6325 3.47363 30.259 3.47363 29.8696C3.47363 19.6753 13.2247 11.3689 25.2357 11.3689C25.6242 11.3689 25.9968 11.5236 26.2715 11.7989C26.5462 12.0743 26.7005 12.4478 26.7005 12.8372C26.7033 13.0318 26.6674 13.225 26.5951 13.4055C26.5227 13.5861 26.4152 13.7505 26.279 13.889C26.1427 14.0276 25.9803 14.1376 25.8012 14.2127C25.6221 14.2878 25.4299 14.3265 25.2357 14.3265C14.7732 14.3265 6.40314 21.2905 6.40314 29.8696C6.40314 30.259 6.24883 30.6325 5.97413 30.9078C5.69944 31.1832 5.32686 31.3379 4.93838 31.3379Z" fill="white"/>
<path d="M76.021 0H53.38C51.3345 0 49.6763 1.66224 49.6763 3.71272V4.5098C49.6763 6.56028 51.3345 8.22253 53.38 8.22253H76.021C78.0665 8.22253 79.7247 6.56028 79.7247 4.5098V3.71272C79.7247 1.66224 78.0665 0 76.021 0Z" fill="#252E3E"/>
<path d="M85.3744 57.6205V54.2224H91.066V57.6205H92.4471V12.8372H91.066V16.9064H85.3744V12.8372H83.9724V57.6205H85.3744ZM85.3744 18.4587H91.066V22.8636H85.3744V18.4587ZM85.3744 24.4368H91.066V28.8207H85.3744V24.4368ZM85.3744 30.3939H91.066V34.7779H85.3744V30.3939ZM85.3744 36.351H91.066V40.756H85.3744V36.351ZM85.3744 42.3082H91.066V46.6292H85.3744V42.3082ZM85.3744 48.2653H91.066V52.6702H85.3744V48.2653Z" fill="white"/>
<path d="M36.3469 78.5545C36.3427 75.9002 35.5538 73.3068 34.0797 71.1019C32.6057 68.897 30.5127 67.1796 28.0652 66.1668C25.6178 65.1539 22.9258 64.891 20.3293 65.4114C17.7329 65.9318 15.3486 67.2119 13.4778 69.0902C11.607 70.9685 10.3336 73.3606 9.81854 75.9642C9.3035 78.5677 9.56995 81.2658 10.5842 83.7176C11.5984 86.1694 13.3149 88.2648 15.5168 89.739C17.7186 91.2131 20.307 92 22.9548 92C24.7153 92 26.4584 91.652 28.0846 90.9761C29.7107 90.3001 31.188 89.3094 32.4318 88.0606C33.6757 86.8118 34.6617 85.3294 35.3335 83.6982C36.0053 82.0671 36.3496 80.3191 36.3469 78.5545Z" fill="#3D4C66"/>
<path d="M28.1651 78.5546C28.1651 77.5215 27.8595 76.5118 27.287 75.6528C26.7145 74.7939 25.9007 74.1244 24.9487 73.7291C23.9966 73.3338 22.9489 73.2304 21.9382 73.4319C20.9275 73.6334 19.9991 74.1309 19.2705 74.8613C18.5418 75.5918 18.0455 76.5224 17.8445 77.5356C17.6435 78.5488 17.7466 79.5989 18.141 80.5533C18.5354 81.5077 19.2032 82.3234 20.06 82.8973C20.9168 83.4712 21.9242 83.7775 22.9547 83.7775C24.3366 83.7775 25.6619 83.2272 26.639 82.2477C27.6161 81.2682 28.1651 79.9398 28.1651 78.5546Z" fill="white"/>
<path d="M144.53 76.8345H77.423C77.0273 76.8685 76.6289 76.8197 76.2531 76.6912C75.8772 76.5628 75.5322 76.3574 75.2396 76.0882C74.9471 75.8191 74.7136 75.4919 74.5538 75.1275C74.394 74.7631 74.3115 74.3694 74.3115 73.9713C74.3115 73.5733 74.394 73.1795 74.5538 72.8151C74.7136 72.4507 74.9471 72.1235 75.2396 71.8543C75.5322 71.5852 75.8772 71.3799 76.2531 71.2514C76.6289 71.1229 77.0273 71.0742 77.423 71.1081H146.246C145.322 72.8927 144.74 74.835 144.53 76.8345ZM185.773 71.1081H175.311C176.234 72.8927 176.817 74.835 177.026 76.8345H185.773C186.489 76.7731 187.155 76.4448 187.64 75.9146C188.126 75.3845 188.395 74.691 188.395 73.9713C188.395 73.2516 188.126 72.5581 187.64 72.028C187.155 71.4978 186.489 71.1696 185.773 71.1081Z" fill="#252E3E"/>
<path d="M185.124 41.5742C183.681 38.0712 183.513 35.0507 179.768 34.7361C177.989 34.5892 169.054 15.0188 165.267 15.0188H141.935C140.126 15.0188 138.391 15.7392 137.111 17.0216C135.832 18.304 135.113 20.0434 135.113 21.8569V41.1757H133.607C133.314 41.1757 133.024 41.2339 132.753 41.3469C132.483 41.4599 132.237 41.6256 132.031 41.8343C131.825 42.043 131.662 42.2906 131.552 42.5628C131.441 42.835 131.386 43.1263 131.389 43.4201V62.2983C131.386 62.5921 131.441 62.8835 131.552 63.1557C131.662 63.4279 131.825 63.6754 132.031 63.8841C132.237 64.0928 132.483 64.2585 132.753 64.3715C133.024 64.4846 133.314 64.5428 133.607 64.5428H135.302C135.584 65.8287 136.232 67.0048 137.168 67.9283C138.104 68.8518 139.288 69.4828 140.575 69.7447C141.021 69.8466 141.477 69.8959 141.935 69.8916H146.873C148.33 67.505 150.373 65.5334 152.808 64.1654C155.243 62.7975 157.987 62.0791 160.778 62.0791C163.569 62.0791 166.313 62.7975 168.748 64.1654C171.183 65.5334 173.226 67.505 174.683 69.8916H183.053C183.958 69.9237 184.861 69.7689 185.704 69.4369C186.547 69.1049 187.313 68.6027 187.955 67.9615C188.597 67.3203 189.1 66.5538 189.434 65.7095C189.767 64.8652 189.925 63.9611 189.895 63.0534C189.165 55.7286 187.564 48.5176 185.124 41.5742ZM171.858 39.4766H146.476C145.001 39.5868 143.543 39.1087 142.418 38.1462C141.293 37.1837 140.593 35.8149 140.47 34.3376V24.0174C140.598 22.5439 141.3 21.1804 142.425 20.2223C143.549 19.2642 145.004 18.7889 146.476 18.8993H164.409C167.715 18.9623 175.185 39.5396 171.858 39.5396V39.4766Z" fill="#FFBB26"/>
<path d="M174.181 78.5544C174.181 75.8942 173.394 73.2938 171.919 71.0823C170.444 68.8707 168.348 67.1474 165.896 66.1304C163.444 65.1133 160.746 64.8483 158.143 65.3688C155.541 65.8893 153.151 67.1719 151.276 69.0544C149.401 70.9369 148.125 73.3347 147.61 75.9442C147.095 78.5538 147.363 81.2578 148.382 83.7143C149.4 86.1708 151.123 88.2693 153.331 89.7442C155.54 91.2191 158.135 92.0041 160.789 91.9999C164.342 91.9944 167.749 90.5753 170.26 88.0544C172.77 85.5335 174.181 82.1167 174.181 78.5544Z" fill="#3D4C66"/>
<path d="M165.978 78.5545C165.978 77.5206 165.672 76.51 165.098 75.6506C164.525 74.7912 163.71 74.1218 162.757 73.7271C161.803 73.3324 160.755 73.2302 159.743 73.4334C158.732 73.6367 157.804 74.1362 157.076 74.8687C156.348 75.6013 155.853 76.5339 155.655 77.5485C155.456 78.563 155.562 79.6138 155.96 80.5678C156.357 81.5218 157.028 82.3361 157.888 82.9075C158.748 83.4788 159.757 83.7816 160.788 83.7775C161.472 83.7775 162.148 83.6422 162.779 83.3795C163.41 83.1167 163.983 82.7317 164.465 82.2465C164.947 81.7612 165.329 81.1852 165.589 80.5516C165.848 79.9181 165.981 79.2394 165.978 78.5545Z" fill="white"/>
<path d="M4.54077 63.5359H16.489C13.5171 64.813 10.9952 66.9538 9.24892 69.6818H4.54077C3.77147 69.618 3.05423 69.2666 2.53137 68.6974C2.00851 68.1281 1.71826 67.3826 1.71826 66.6088C1.71826 65.835 2.00851 65.0895 2.53137 64.5203C3.05423 63.951 3.77147 63.5996 4.54077 63.5359ZM124.839 63.5359H63.5077C66.482 64.8183 69.0092 66.9574 70.7688 69.6818H124.839C125.263 69.7169 125.69 69.6636 126.092 69.5251C126.494 69.3866 126.863 69.166 127.176 68.8772C127.489 68.5884 127.739 68.2378 127.91 67.8474C128.08 67.4569 128.169 67.0352 128.169 66.6088C128.169 66.1825 128.08 65.7608 127.91 65.3704C127.739 64.9799 127.489 64.6292 127.176 64.3405C126.863 64.0517 126.494 63.8311 126.092 63.6926C125.69 63.5541 125.263 63.5007 124.839 63.5359ZM50.576 63.5359H29.4207C32.3859 64.8239 34.9049 66.9622 36.6608 69.6818H43.3359C45.0919 66.9622 47.6108 64.8239 50.576 63.5359Z" fill="#252E3E"/>
<path d="M70.4549 78.5544C70.4549 75.8951 69.6683 73.2955 68.1944 71.0844C66.7206 68.8733 64.6258 67.15 62.1749 66.1324C59.724 65.1147 57.027 64.8484 54.4252 65.3672C51.8233 65.886 49.4333 67.1666 47.5575 69.047C45.6817 70.9274 44.4042 73.3232 43.8866 75.9313C43.3691 78.5395 43.6347 81.2429 44.6499 83.6998C45.6651 86.1566 47.3843 88.2565 49.59 89.7339C51.7958 91.2113 54.3891 91.9999 57.0419 91.9999C60.5993 91.9999 64.0109 90.5833 66.5263 88.0618C69.0417 85.5403 70.4549 82.1204 70.4549 78.5544Z" fill="#3D4C66"/>
<path d="M62.2523 78.5546C62.2523 77.5215 61.9467 76.5118 61.3741 75.6528C60.8016 74.7939 59.9879 74.1244 59.0358 73.7291C58.0838 73.3338 57.0361 73.2304 56.0254 73.4319C55.0147 73.6334 54.0863 74.1309 53.3576 74.8613C52.6289 75.5918 52.1327 76.5224 51.9317 77.5356C51.7306 78.5488 51.8338 79.5989 52.2282 80.5533C52.6225 81.5077 53.2904 82.3234 54.1472 82.8973C55.004 83.4712 56.0114 83.7775 57.0419 83.7775C57.7269 83.7803 58.4057 83.6471 59.0391 83.3856C59.6725 83.1241 60.248 82.7395 60.7324 82.2539C61.2167 81.7684 61.6004 81.1915 61.8613 80.5566C62.1221 79.9216 62.255 79.2412 62.2523 78.5546Z" fill="white"/>
<path d="M39.3183 24.311C40.6652 24.3166 41.9553 24.8554 42.9077 25.8101C43.8601 26.7648 44.3976 28.0581 44.4031 29.4082V41.0498C44.4045 42.0589 44.1071 43.0459 43.5485 43.8854C42.9898 44.725 42.1952 45.3794 41.2652 45.7658C40.3352 46.1521 39.3116 46.2531 38.3243 46.0559C37.337 45.8586 36.4304 45.3719 35.7192 44.6576C35.2416 44.1878 34.8637 43.626 34.6084 43.006C34.353 42.3859 34.2255 41.7205 34.2335 41.0498V29.4082C34.239 28.0581 34.7765 26.7648 35.7289 25.8101C36.6813 24.8554 37.9714 24.3166 39.3183 24.311ZM41.0551 29.3453C41.0532 28.9816 40.9443 28.6265 40.7418 28.3247C40.5393 28.0228 40.2524 27.7877 39.9171 27.6488C39.5818 27.5099 39.213 27.4733 38.857 27.5438C38.5011 27.6142 38.1738 27.7885 37.9163 28.0448C37.7422 28.2131 37.6041 28.4152 37.5106 28.6388C37.417 28.8624 37.37 29.1028 37.3723 29.3453V41.0078C37.3687 41.2505 37.4152 41.4912 37.5088 41.715C37.6025 41.9388 37.7412 42.1408 37.9163 42.3083C38.0875 42.4815 38.2913 42.6189 38.5157 42.7127C38.7402 42.8065 38.9809 42.8548 39.2241 42.8548C39.4673 42.8548 39.7081 42.8065 39.9326 42.7127C40.157 42.6189 40.3608 42.4815 40.532 42.3083C40.7043 42.1398 40.8399 41.9371 40.9299 41.7132C41.02 41.4893 41.0626 41.2491 41.0551 41.0078V29.3453Z" fill="white"/>
<path d="M51.9152 45.8952H48.7136V24.5837H51.9152V45.8952Z" fill="white"/>
<path d="M65.7467 45.8952H57V24.5837H60.2225V42.7069H65.7467V45.8952Z" fill="white"/>
</g>
<defs>
<clipPath id="clip0_45_63">
<rect width="190" height="92" fill="white"/>
</clipPath>
</defs>
</svg>
