<svg width="146" height="149" viewBox="0 0 146 149" fill="none" xmlns="http://www.w3.org/2000/svg">
<g clip-path="url(#clip0_45_80)">
<path d="M10.5573 48.6243H8.56738V112.128H10.5573V48.6243Z" fill="#252E3E"/>
<path d="M130.018 75.0876H128.028V112.128H130.018V75.0876Z" fill="#252E3E"/>
<path d="M13.029 135.716V115.947C13.029 115.591 12.8878 115.249 12.6364 114.997C12.385 114.746 12.044 114.604 11.6885 114.604H7.49908C7.14353 114.604 6.80255 114.746 6.55114 114.997C6.29973 115.249 6.15845 115.591 6.15845 115.947V135.716H13.029Z" fill="#D12832"/>
<path d="M138.794 135.716V115.947C138.794 115.591 138.653 115.249 138.402 114.997C138.15 114.746 137.809 114.604 137.454 114.604H120.696C120.341 114.604 120 114.746 119.748 114.997C119.497 115.249 119.355 115.591 119.355 115.947V135.716H138.794Z" fill="#D12832"/>
<path d="M72.3297 51.6042H68.8734L50.0002 140.291H58.4628L72.3297 51.6042Z" fill="#252E3E"/>
<path d="M87.5373 140.291H95.9998L77.1267 51.6042H73.6704L87.5373 140.291Z" fill="#252E3E"/>
<path d="M84.8351 98.2771H61.165V101.635H84.8351V98.2771Z" fill="#252E3E"/>
<path d="M84.8351 108.77H61.165V112.128H84.8351V108.77Z" fill="#252E3E"/>
<path d="M42.1871 0C29.3974 4.71925 19.0019 14.3342 13.2866 26.7307C7.57122 39.1271 7.00394 53.2902 11.7094 66.1056L35.9659 36.5575L42.1871 0Z" fill="#FF313D"/>
<path d="M24.7593 31.9825C25.448 30.4743 26.4391 29.1242 27.671 28.0162C27.1614 26.9311 26.3531 26.0144 25.3412 25.3739C24.3293 24.7334 23.1558 24.3957 21.9589 24.4007C20.7619 24.4056 19.5913 24.753 18.5847 25.4018C17.578 26.0507 16.7773 26.974 16.2767 28.0633C15.7761 29.1526 15.5964 30.3624 15.7588 31.5506C15.9212 32.7387 16.4189 33.8556 17.1934 34.7699C17.9679 35.6843 18.9869 36.358 20.1305 36.7119C21.2742 37.0657 22.4949 37.0849 23.6492 36.7673C23.6703 35.1108 24.049 33.4785 24.7593 31.9825Z" fill="white"/>
<path d="M19.795 46.5678C20.1161 45.8758 20.2254 45.104 20.109 44.3498C19.9926 43.5956 19.6558 42.8929 19.1411 42.3303C18.6263 41.7678 17.9567 41.3707 17.2169 41.1892C16.477 41.0077 15.7 41.0499 14.9841 41.3104C14.2681 41.571 13.6453 42.0382 13.1942 42.6532C12.7431 43.2681 12.4841 44.0032 12.4497 44.7656C12.4154 45.528 12.6073 46.2834 13.0012 46.9366C13.3951 47.5898 13.9733 48.1114 14.6629 48.4355C15.1222 48.6514 15.6194 48.7743 16.1262 48.7972C16.6329 48.8202 17.1392 48.7426 17.616 48.5691C18.0928 48.3956 18.5307 48.1295 18.9046 47.786C19.2785 47.4426 19.5811 47.0286 19.795 46.5678Z" fill="white"/>
<path d="M32.6771 18.7825C32.9968 18.0889 33.1039 17.316 32.985 16.5614C32.8661 15.8069 32.5265 15.1046 32.0091 14.5435C31.4917 13.9823 30.8198 13.5876 30.0785 13.4091C29.3371 13.2306 28.5595 13.2765 27.8442 13.5408C27.1288 13.8052 26.5078 14.2762 26.0596 14.8942C25.6115 15.5123 25.3564 16.2496 25.3267 17.0129C25.2969 17.7762 25.4938 18.5312 25.8924 19.1824C26.291 19.8336 26.8735 20.3517 27.5661 20.6712C28.4947 21.0934 29.552 21.132 30.5088 20.7784C31.4656 20.4248 32.2446 19.7077 32.6771 18.7825Z" fill="white"/>
<path d="M33.8625 30.3666L29.4749 39.8713L120.315 81.9619L124.702 72.4571L33.8625 30.3666Z" fill="#FF313D"/>
<path d="M122.708 70.8218L117.771 81.5057C117.247 82.6416 117.74 83.9888 118.874 84.5146L123.816 86.8067C124.95 87.3326 126.295 86.838 126.82 85.702L131.756 75.0181C132.281 73.8822 131.787 72.535 130.654 72.0092L125.711 69.7171C124.577 69.1912 123.233 69.6859 122.708 70.8218Z" fill="#D12832"/>
<path d="M30.1425 49.9885C29.9736 50.3696 29.7298 50.7126 29.4256 50.9972C29.1215 51.2818 28.7633 51.5023 28.3723 51.6452C27.9814 51.7882 27.5657 51.8508 27.1501 51.8293C26.7345 51.8079 26.3274 51.7029 25.9532 51.5205C25.5748 51.3489 25.2343 51.1034 24.9518 50.7983C24.6694 50.4932 24.4505 50.1348 24.3081 49.7439C24.1657 49.353 24.1026 48.9375 24.1225 48.5219C24.1424 48.1062 24.2449 47.6987 24.424 47.3233L36.2381 21.7414C36.4116 21.3642 36.6578 21.0252 36.9627 20.7438C37.2676 20.4623 37.625 20.2441 38.0145 20.1017C38.4039 19.9593 38.8176 19.8955 39.2317 19.914C39.6459 19.9325 40.0523 20.033 40.4275 20.2095C40.804 20.3833 41.1424 20.63 41.4233 20.9354C41.7042 21.2409 41.922 21.599 42.0642 21.9892C42.2063 22.3793 42.27 22.7938 42.2515 23.2087C42.2331 23.6236 42.1328 24.0308 41.9566 24.4067L30.1425 49.9885Z" fill="#D12832"/>
<path d="M77.5245 44.5949C75.6116 43.5679 73.4378 43.132 71.2777 43.3424C69.1177 43.5527 67.0683 44.3999 65.3887 45.7769C63.7091 47.1538 62.4746 48.9987 61.8413 51.0784C61.2079 53.158 61.2042 55.3791 61.8305 57.4609C62.4568 59.5426 63.6851 61.3917 65.36 62.7743C67.035 64.1569 69.0814 65.0111 71.2408 65.2287C73.4001 65.4464 75.5754 65.0179 77.4918 63.9974C79.4081 62.9768 80.9794 61.41 82.0072 59.495C83.3812 56.9228 83.6809 53.9097 82.8406 51.1165C82.0003 48.3232 80.0885 45.9779 77.5245 44.5949Z" fill="#3D4C66"/>
<path d="M75.0108 49.3169C74.0255 48.7872 72.9057 48.5619 71.7927 48.6695C70.6798 48.7772 69.6236 49.213 68.7577 49.9219C67.8919 50.6307 67.2552 51.5808 66.9281 52.652C66.601 53.7232 66.5982 54.8676 66.92 55.9404C67.2418 57.0132 67.8739 57.9665 68.7362 58.6796C69.5986 59.3926 70.6526 59.8336 71.7651 59.9467C72.8775 60.0599 73.9985 59.8401 74.9863 59.3153C75.9741 58.7904 76.7845 57.9839 77.315 56.9978C77.6677 56.342 77.888 55.623 77.9631 54.8819C78.0382 54.1408 77.9667 53.392 77.7527 52.6786C77.5386 51.9652 77.1863 51.3011 76.7159 50.7243C76.2454 50.1474 75.6659 49.6692 75.0108 49.3169Z" fill="white"/>
<path d="M73.9007 51.4155C73.3201 51.1031 72.6601 50.9703 72.0041 51.0338C71.3481 51.0974 70.7257 51.3544 70.2157 51.7726C69.7056 52.1907 69.3308 52.751 69.1387 53.3826C68.9466 54.0142 68.9459 54.6886 69.1367 55.3207C69.3274 55.9527 69.7009 56.5138 70.2101 56.933C70.7193 57.3522 71.3411 57.6106 71.997 57.6756C72.6528 57.7406 73.3132 57.6091 73.8944 57.2979C74.4757 56.9868 74.9517 56.5098 75.2623 55.9275C75.4709 55.5422 75.6012 55.1192 75.6456 54.6832C75.6901 54.2471 75.6477 53.8065 75.5211 53.3869C75.3945 52.9673 75.1861 52.5771 74.9079 52.2387C74.6298 51.9003 74.2874 51.6205 73.9007 51.4155Z" fill="#252E3E"/>
<path d="M146 143.376C145.995 141.891 145.403 140.469 144.356 139.42C143.308 138.37 141.889 137.778 140.407 137.772H5.61382C4.12858 137.772 2.70381 138.362 1.65163 139.412C0.599441 140.463 0.00554195 141.888 0 143.376C0 144.867 0.59149 146.298 1.64428 147.353C2.69706 148.407 4.12496 149 5.61382 149H140.407C141.892 148.994 143.315 148.399 144.363 147.345C145.411 146.291 146 144.864 146 143.376Z" fill="#252E3E"/>
</g>
<defs>
<clipPath id="clip0_45_80">
<rect width="146" height="149" fill="white"/>
</clipPath>
</defs>
</svg>
