<svg width="146" height="114" viewBox="0 0 146 114" fill="none" xmlns="http://www.w3.org/2000/svg">
<g clip-path="url(#clip0_45_148)">
<path d="M122.38 11.4285V19.0285H111.738V11.4285H0V21.1553H3.46278V114H142.509V21.1553H146V11.4285H122.38Z" fill="#252E3E"/>
<path d="M113.793 113.943V109.548H120.268V113.943H121.873V21.1553H120.268V25.806H113.793V21.1553H112.217V113.943H113.793ZM113.793 27.5926H120.268V32.6403H113.793V27.5926ZM113.793 34.4269H120.268V39.4747H113.793V34.4269ZM113.793 41.2612H120.268V46.309H113.793V41.2612ZM113.793 48.0956H120.268V53.0299H113.793V48.0956ZM113.793 54.9299H120.268V59.9493H113.793V54.9299ZM113.793 61.7359H120.268V66.7836H113.793V61.7359ZM113.793 68.5702H120.268V73.618H113.793V68.5702ZM113.793 75.4045H120.268V80.4523H113.793V75.4045ZM113.793 82.2388H120.268V87.2866H113.793V82.2388ZM113.793 89.0731H120.268V94.0926H113.793V89.0731ZM113.793 95.8791H120.268V100.927H113.793V95.8791ZM113.793 102.713H120.268V107.761H113.793V102.713Z" fill="white"/>
<path d="M141.27 10.4926C119.383 6.39483 97.1761 4.27839 74.9144 4.1687V2.7225C75.6745 2.43891 76.1812 2.01347 76.1812 1.50303C76.1812 0.992579 74.7454 -0.0566406 73 -0.0566406C71.2545 -0.0566406 69.7906 0.65228 69.7906 1.50303C69.7906 2.35377 70.2973 2.43891 71.0574 2.7225V4.1687C48.6079 4.25042 26.2113 6.36694 4.13843 10.4926H113.624V16.7315H120.494V10.4926H141.27Z" fill="#D12832"/>
<path d="M18.5244 101.437C18.5244 103.763 17.4828 105.634 16.2159 105.634H13.288C11.993 105.634 10.9513 103.763 10.9513 101.437V33.7463C10.9513 31.4209 11.993 29.5492 13.288 29.5492H16.1033C17.3701 29.5492 18.4118 31.4209 18.4118 33.7463L18.5244 101.437ZM13.8792 13.5269H10.0504V19H13.8792V13.5269ZM20.664 13.5269H16.8353V19H20.664V13.5269ZM27.4488 13.5269H23.5919V19H27.3643L27.4488 13.5269ZM34.2336 13.5269H30.3767V19H34.2336V13.5269ZM41.0184 13.5269H37.1615V19H41.0184V13.5269ZM47.7751 13.5269H43.9463V19H47.7751V13.5269ZM54.5599 13.5269H50.7311V19H54.5599V13.5269ZM61.3447 13.5269H57.4878V19H61.3447V13.5269ZM68.1295 13.5269H64.2725V19H68.1295V13.5269ZM74.9143 13.5269H71.0573V19H74.9143V13.5269ZM81.6991 13.5269H77.8421V19H81.6991V13.5269ZM88.4839 13.5269H84.627V19H88.4839V13.5269ZM95.2405 13.5269H91.4118V19H95.2405V13.5269ZM102.025 13.5269H98.1684V19H102.025V13.5269ZM108.81 13.5269H104.953V19H108.81V13.5269ZM129.136 13.5269H125.308V19H129.136V13.5269ZM135.921 13.5269H132.064V19H135.921V13.5269ZM7.12253 13.5269H3.26562V19H7.12253V13.5269ZM142.706 13.5269H138.849V19H142.79L142.706 13.5269Z" fill="white"/>
</g>
<defs>
<clipPath id="clip0_45_148">
<rect width="146" height="114" fill="white"/>
</clipPath>
</defs>
</svg>
