<svg width="129" height="135" viewBox="0 0 129 135" fill="none" xmlns="http://www.w3.org/2000/svg">
<g clip-path="url(#clip0_45_124)">
<path d="M127.901 55.3663C128.17 55.3449 128.436 55.4304 128.642 55.6041C128.848 55.7778 128.976 56.0257 129 56.2938V69.7103C128.976 69.9784 128.848 70.2263 128.642 70.4C128.436 70.5737 128.17 70.6591 127.901 70.6377H125.115C124.845 70.6593 124.577 70.5743 124.369 70.401C124.16 70.2276 124.028 69.9797 124.001 69.7103V56.2938C124.028 56.0244 124.16 55.7764 124.369 55.6031C124.577 55.4297 124.845 55.3447 125.115 55.3663H127.901Z" fill="#252E3E"/>
<path d="M127.189 24.0044H125.827V59.5087H127.189V24.0044Z" fill="#252E3E"/>
<path d="M55.6084 0.741943H54.0298V91.6745H55.6084V0.741943Z" fill="#252E3E"/>
<path d="M56.1348 0.741945C56.1435 0.925543 56.0806 1.10537 55.9594 1.2437C55.8383 1.38202 55.6682 1.46811 55.4848 1.48389H54.1692C53.9872 1.46812 53.8186 1.38146 53.6999 1.24266C53.5811 1.10386 53.5218 0.924032 53.5347 0.741945C53.5262 0.651356 53.536 0.559993 53.5636 0.473262C53.5911 0.386531 53.6358 0.306213 53.6949 0.237032C53.7541 0.167851 53.8266 0.111229 53.908 0.0705199C53.9895 0.0298113 54.0783 0.00580948 54.1692 0H55.4848C55.5763 0.00589015 55.6658 0.0298161 55.748 0.0703312C55.8303 0.110846 55.9037 0.167151 55.9641 0.236088C56.0245 0.305026 56.0707 0.385229 56.1 0.472035C56.1293 0.558842 56.1411 0.65056 56.1348 0.741945Z" fill="#252E3E"/>
<path d="M36.3707 91.6744H32.6252C37.5624 64.2849 41.5399 36.8954 46.4771 9.50586H48.7212L36.3707 91.6744Z" fill="#FF313D"/>
<path d="M77.0904 91.6744H73.2831L60.9016 9.50586H63.1458C68.2222 36.8954 72.1378 64.2849 77.0904 91.6744Z" fill="#FF313D"/>
<path d="M42.9329 34.7469C46.9723 31.6555 50.9654 28.5641 54.8346 25.0554C58.6884 28.5178 62.6814 31.7019 66.7209 34.7469L66.0708 31.0991C62.8981 28.626 59.7562 26.0756 56.7073 23.3707C59.0134 21.2067 61.273 18.9191 63.4398 16.4923L62.8671 13.2773C60.3485 16.2127 57.6668 19.0045 54.8346 21.6395C51.9974 19.0047 49.3104 16.2129 46.7866 13.2773L46.214 16.4923C48.391 18.9242 50.6352 21.217 52.9464 23.3707C49.851 26.1065 46.7557 28.6569 43.6603 31.0991L42.9329 34.7469Z" fill="#FF313D"/>
<path d="M74.8772 80.2673C69.1043 77.1759 63.3933 74.0845 57.7288 70.7613C62.3719 67.9481 67.0149 64.9959 71.5806 61.8582L70.4972 55.8609C66.0399 53.0787 61.5825 50.1728 57.218 47.0815C60.7003 44.5311 64.1207 41.8416 67.4637 38.9511L66.8756 35.6279C62.96 39.1366 58.936 42.3516 54.8346 45.3657C50.7178 42.3516 46.6937 39.183 42.7781 35.6279L42.19 38.9511C45.533 41.8416 48.9534 44.5311 52.4357 47.0815C48.0712 50.1728 43.6293 53.0787 39.1565 55.8609L38.0731 61.8582C42.7162 64.9496 47.2664 67.9481 52.0023 70.7613C46.3378 74.1 40.6113 77.2377 34.8384 80.2673L34.5134 82.1375C34.6837 82.5085 34.8539 82.8795 35.0861 83.3586C41.7566 79.9272 48.3653 76.3412 54.8965 72.5389C61.4278 76.3876 68.0364 79.9736 74.707 83.3586C74.9236 82.8795 75.1093 82.5085 75.2796 82.1375L74.8772 80.2673ZM54.7572 69.0301C49.526 65.9388 44.3413 62.5383 39.2803 58.9523C44.5115 55.7527 49.7118 52.4295 54.7572 48.8126C59.8336 52.4295 65.0339 55.7527 70.2341 58.9523C65.2351 62.5383 60.0503 65.9542 54.8346 69.0456L54.7572 69.0301Z" fill="#FF313D"/>
<path d="M62.5112 14.5602H47.1426V12.7363H62.5112V14.5602ZM64.6315 22.0877H45.0068V23.9116H64.616L64.6315 22.0877ZM65.6839 33.8349H44.0163V35.6588H65.6839V33.8349ZM67.8817 45.7521H41.7876V47.576H67.8817V45.7521ZM70.1722 58.5967H39.4815V60.4052H70.1722V58.5967ZM71.1782 69.5711H38.4755V71.395H71.1782V69.5711ZM73.5462 80.7773H36.123V82.6012H73.5462V80.7773Z" fill="#FF313D"/>
<path d="M109.654 116.034C107.392 116.519 105.295 117.585 103.571 119.126C102.024 120.254 100.476 121.429 99.2379 121.429C97.9997 121.429 96.4366 120.254 94.9044 119.126C92.9388 117.657 90.7101 116.034 88.141 116.034C85.5718 116.034 83.3431 117.688 81.3621 119.126C80.1479 120.264 78.6522 121.059 77.0286 121.429C75.4089 121.061 73.9177 120.265 72.7105 119.126C70.7294 117.657 68.5008 116.034 65.9316 116.034C63.3625 116.034 61.1338 117.688 59.1682 119.126C57.6205 120.254 56.0728 121.429 54.8347 121.429C53.5965 121.429 52.0334 120.254 50.5011 119.126C48.5356 117.657 46.3069 116.034 43.7377 116.034C41.1686 116.034 38.9399 117.688 36.9589 119.126C35.7447 120.264 34.2489 121.059 32.6253 121.429C31.0077 121.055 29.518 120.26 28.3073 119.126C26.3417 117.657 24.113 116.034 21.5284 116.034C18.9437 116.034 16.7305 117.688 14.765 119.126C13.2173 120.254 11.6696 121.429 10.4314 121.429C9.19329 121.429 7.63012 120.254 6.0979 119.126C4.36592 117.588 2.26538 116.523 0 116.034V120.177C1.33472 120.703 2.57387 121.445 3.66802 122.372C5.63359 123.84 7.86228 125.463 10.4314 125.463C13.0006 125.463 15.2293 123.809 17.1948 122.372C18.7425 121.243 20.2902 120.053 21.5284 120.053C22.7665 120.053 24.3297 121.243 25.8619 122.372C27.8275 123.84 30.0562 125.463 32.6253 125.463C35.1945 125.463 37.4386 123.809 39.4042 122.372C40.9519 121.243 42.4996 120.053 43.7377 120.053C44.9759 120.053 46.539 121.243 48.0713 122.372C50.0368 123.84 52.2655 125.463 54.8347 125.463C57.4039 125.463 59.6325 123.809 61.5981 122.372C63.1458 121.243 64.6935 120.053 65.9316 120.053C67.1698 120.053 68.7329 121.243 70.2652 122.372C72.2307 123.84 74.4594 125.463 77.0286 125.463C79.5977 125.463 81.8419 123.809 83.8074 122.372C85.3551 121.243 86.9028 120.053 88.141 120.053C89.3791 120.053 90.9423 121.243 92.4745 122.372C94.4401 123.84 96.6687 125.463 99.2379 125.463C101.807 125.463 104.036 123.809 106.001 122.372C107.094 121.451 108.327 120.71 109.654 120.177V116.034Z" fill="#3D4C66"/>
<path d="M28.3073 114.35C29.5127 115.495 31.004 116.296 32.6253 116.668C34.2522 116.298 35.7492 115.497 36.9589 114.35L38.0577 113.546V99.6348H24.9797V112.093C26.1486 112.753 27.2615 113.508 28.3073 114.35Z" fill="#252E3E"/>
<path d="M72.7105 114.35C73.9159 115.495 75.4073 116.296 77.0286 116.668C78.6554 116.298 80.1524 115.497 81.3621 114.35C82.4078 113.539 83.5152 112.81 84.6742 112.17V99.7122H71.5962V113.623L72.7105 114.35Z" fill="#252E3E"/>
<path d="M109.654 125.54C107.392 126.025 105.295 127.091 103.571 128.632C102.024 129.76 100.476 130.935 99.2379 130.935C97.9997 130.935 96.4366 129.76 94.9044 128.632C92.9388 127.086 90.7101 125.54 88.141 125.54C85.5718 125.54 83.3431 127.194 81.3621 128.632C80.1479 129.77 78.6522 130.565 77.0286 130.935C75.4089 130.567 73.9177 129.771 72.7105 128.632C70.7294 127.086 68.5008 125.54 65.9316 125.54C63.3625 125.54 61.1338 127.194 59.1682 128.632C57.6205 129.76 56.0728 130.935 54.8347 130.935C53.5965 130.935 52.0334 129.76 50.5011 128.632C48.5356 127.086 46.3069 125.54 43.7377 125.54C41.1686 125.54 38.9399 127.194 36.9589 128.632C35.7377 129.748 34.2425 130.521 32.6253 130.873C31.0077 130.499 29.518 129.705 28.3073 128.57C26.3417 127.024 24.113 125.479 21.5284 125.479C18.9437 125.479 16.7305 127.132 14.765 128.57C13.2173 129.698 11.6696 130.873 10.4314 130.873C9.19329 130.873 7.63012 129.698 6.0979 128.57C4.36995 127.026 2.26777 125.96 0 125.479V129.605C1.33502 130.138 2.57399 130.884 3.66802 131.816C5.63359 133.269 7.86228 134.907 10.4314 134.907C13.0006 134.907 15.2293 133.238 17.1948 131.816C18.7425 130.672 20.2902 129.497 21.5284 129.497C22.7665 129.497 24.3297 130.672 25.8619 131.816C27.8275 133.269 30.0562 134.907 32.6253 134.907C35.1945 134.907 37.4386 133.238 39.4042 131.816C40.9519 130.672 42.4996 129.497 43.7377 129.497C44.9759 129.497 46.539 130.672 48.0713 131.816C50.0368 133.269 52.2655 134.907 54.8347 134.907C57.4039 134.907 59.6325 133.238 61.5981 131.816C63.1458 130.672 64.6935 129.497 65.9316 129.497C67.1698 129.497 68.7329 130.672 70.2652 131.816C72.2307 133.269 74.4594 134.907 77.0286 134.907C79.5977 134.907 81.8419 133.238 83.8074 131.816C85.3551 130.672 86.9028 129.497 88.141 129.497C89.3791 129.497 90.9423 130.672 92.4745 131.816C94.4401 133.269 96.6687 134.907 99.2379 134.907C101.807 134.907 104.036 133.238 106.001 131.816C107.09 130.889 108.324 130.148 109.654 129.621V125.54Z" fill="#3D4C66"/>
<path d="M52.9156 61.8582H16.7461V88.6758H52.9156V61.8582Z" fill="#FFBB26"/>
<path d="M48.1486 66.8044H43.3198V75.2593H48.1486V66.8044Z" fill="#3D4C66"/>
<path d="M38.6613 66.8044H33.8325V75.2593H38.6613V66.8044Z" fill="#3D4C66"/>
<path d="M26.2797 78.8762H21.4509V87.3311H26.2797V78.8762Z" fill="#3D4C66"/>
<path d="M84.5967 93.0038L80.4643 68.6902L73.2676 77.037L72.2461 76.1404L80.1703 66.9436L119.296 21.5469L123.475 24.3446L84.5967 93.0038ZM81.8108 68.5202L85.2467 89.016L95.74 70.4678L81.8108 68.5202ZM81.8108 67.1445L95.2757 69.0766L92.1803 55.1655L81.8108 67.1445ZM93.5887 55.1655L96.6841 69.0766L104.314 55.5983L93.5887 55.1655ZM93.3256 53.7899L103.974 54.1608L101.528 44.2684L93.3256 53.7899ZM102.968 44.3921L105.274 53.7744L111.279 43.1864L102.968 44.3921ZM110.304 34.0979L102.565 43.0783L111.031 41.8572L110.304 34.0979ZM111.635 33.7887L112.331 41.3162L116.974 33.0777L111.635 33.7887ZM116.061 27.405L111.759 32.413L116.587 31.7639L116.061 27.405ZM117.268 26.0139L117.918 31.4547L121.71 24.7773L119.574 23.3399L117.268 26.0139Z" fill="#252E3E"/>
<path d="M128.582 23.9889C128.582 22.7661 128.219 21.5707 127.539 20.554C126.859 19.5372 125.892 18.7448 124.761 18.2768C123.629 17.8088 122.385 17.6864 121.184 17.925C119.983 18.1635 118.88 18.7524 118.014 19.6171C117.148 20.4817 116.559 21.5834 116.32 22.7827C116.081 23.982 116.203 25.2252 116.672 26.3549C117.141 27.4847 117.934 28.4503 118.952 29.1296C119.97 29.809 121.167 30.1716 122.391 30.1716C124.033 30.1716 125.608 29.5203 126.769 28.3608C127.93 27.2013 128.582 25.6287 128.582 23.9889Z" fill="#3D4C66"/>
<path d="M124.713 23.9891C124.71 23.5128 124.566 23.0482 124.299 22.6537C124.031 22.2592 123.653 21.9525 123.212 21.7724C122.77 21.5923 122.286 21.5467 121.818 21.6415C121.351 21.7363 120.922 21.9671 120.586 22.305C120.25 22.6428 120.021 23.0725 119.93 23.5398C119.838 24.0071 119.886 24.4911 120.07 24.9308C120.253 25.3705 120.562 25.7462 120.959 26.0105C121.356 26.2748 121.822 26.4158 122.299 26.4158C122.617 26.4158 122.932 26.3529 123.226 26.2308C123.52 26.1086 123.787 25.9297 124.011 25.7041C124.236 25.4786 124.413 25.2109 124.534 24.9165C124.654 24.6222 124.715 24.307 124.713 23.9891Z" fill="white"/>
<path d="M65.2662 8.67138C65.2875 8.85663 65.2714 9.04429 65.2187 9.22319C65.1661 9.40208 65.0779 9.56858 64.9595 9.71277C64.8411 9.85696 64.6949 9.9759 64.5296 10.0625C64.3642 10.1492 64.1831 10.2017 63.9971 10.2171H45.6569C45.4716 10.1997 45.2916 10.1458 45.1273 10.0585C44.963 9.9712 44.8176 9.85225 44.6996 9.70852C44.5816 9.56479 44.4933 9.39913 44.4398 9.22111C44.3862 9.04309 44.3686 8.85626 44.3878 8.67138V4.85354C44.3664 4.6683 44.3826 4.48064 44.4352 4.30174C44.4879 4.12285 44.5761 3.95635 44.6945 3.81216C44.8129 3.66797 44.9591 3.54903 45.1244 3.46239C45.2897 3.37576 45.4708 3.32321 45.6569 3.30786H63.9971C64.1831 3.32321 64.3642 3.37576 64.5296 3.46239C64.6949 3.54903 64.8411 3.66797 64.9595 3.81216C65.0779 3.95635 65.1661 4.12285 65.2187 4.30174C65.2714 4.48064 65.2875 4.6683 65.2662 4.85354V8.67138Z" fill="#D12832"/>
<path d="M92.5519 73.8682H71.689C70.0136 73.8682 68.6555 75.2245 68.6555 76.8977V84.6107C68.6555 86.2838 70.0136 87.6402 71.689 87.6402H92.5519C94.2272 87.6402 95.5853 86.2838 95.5853 84.6107V76.8977C95.5853 75.2245 94.2272 73.8682 92.5519 73.8682Z" fill="#FFBB26"/>
<path d="M96.5139 86.9602H13.1243C11.449 86.9602 10.0908 88.3166 10.0908 89.9897V97.7027C10.0908 99.3759 11.449 100.732 13.1243 100.732H96.5139C98.1892 100.732 99.5473 99.3759 99.5473 97.7027V89.9897C99.5473 88.3166 98.1892 86.9602 96.5139 86.9602Z" fill="#3D4C66"/>
</g>
<defs>
<clipPath id="clip0_45_124">
<rect width="129" height="135" fill="white"/>
</clipPath>
</defs>
</svg>
