<svg width="147" height="122" viewBox="0 0 147 122" fill="none" xmlns="http://www.w3.org/2000/svg">
<g clip-path="url(#clip0_45_100)">
<path d="M63.0941 28.6272H21.5393V54.6124H63.0941V28.6272Z" fill="#3D4C66"/>
<path d="M59.3539 31.8079H25.2617V51.4315H59.3539V31.8079Z" fill="white"/>
<path d="M46.4376 49.0676H19.1672V82.3182H46.4376V49.0676Z" fill="#3D4C66"/>
<path d="M31.2527 98.7959C32.6106 100.08 34.2835 100.98 36.1008 101.403C37.9208 100.987 39.5955 100.086 40.9488 98.7959C43.1478 97.162 45.6411 95.3196 48.5326 95.3196C51.4241 95.3196 53.9001 97.1794 56.099 98.7959C57.8305 100.082 59.5619 101.403 60.9471 101.403C62.3322 101.403 64.081 100.082 65.7951 98.7959C67.9941 97.162 70.4874 95.3196 73.3616 95.3196C76.2358 95.3196 78.7291 97.1794 80.928 98.7959C82.6595 100.082 84.3909 101.403 85.776 101.403C87.596 100.987 89.2708 100.086 90.6241 98.7959C92.8231 97.162 95.3163 95.3196 98.2079 95.3196C101.099 95.3196 103.575 97.1794 105.774 98.7959C107.506 100.082 109.237 101.403 110.622 101.403C112.008 101.403 113.756 100.082 115.47 98.7959C116.997 97.5511 118.694 96.5326 120.509 95.7715C126.136 81.1885 136.975 51.5359 136.975 39.5775V11.0894C136.975 11.0894 67.8902 18.6329 46.5241 40.0815C41.8492 44.7745 16.1199 72.8802 16.1199 72.8802V98.7959C18.3188 97.162 20.8121 95.3196 23.6863 95.3196C26.5605 95.3196 29.0538 97.162 31.2527 98.7959Z" fill="#FF313D"/>
<path d="M68.5135 102.481C67.7689 103.037 66.9725 103.611 66.1587 104.219H80.5644C79.7506 103.68 78.9541 103.106 78.2096 102.481C76.4781 101.195 74.7467 99.8735 73.3615 99.8735C71.9764 99.8735 70.2276 101.195 68.5135 102.481Z" fill="#FF313D"/>
<path d="M93.3596 102.481C92.5978 103.037 91.8186 103.611 90.9875 104.219H105.411C104.579 103.68 103.8 103.106 103.056 102.481C101.324 101.195 99.5928 99.8735 98.2077 99.8735C96.8225 99.8735 95.0738 101.195 93.3596 102.481Z" fill="#FF313D"/>
<path d="M43.6844 102.481C42.9225 103.037 42.1434 103.611 41.3296 104.219H55.7353C54.9042 103.68 54.125 103.106 53.3805 102.481C51.649 101.195 49.9176 99.8735 48.5324 99.8735C47.1473 99.8735 45.3985 101.195 43.6844 102.481Z" fill="#FF313D"/>
<path d="M115.834 104.149H117.202C117.202 104.149 117.41 103.663 117.756 102.793C117.133 103.211 116.492 103.663 115.834 104.149Z" fill="#FF313D"/>
<path d="M18.8382 102.481C18.0936 103.037 17.2972 103.611 16.4834 104.219H30.889C30.0753 103.68 29.2961 103.106 28.5343 102.481C26.8028 101.195 25.0714 99.8735 23.6862 99.8735C22.301 99.8735 20.5523 101.195 18.8382 102.481Z" fill="#FF313D"/>
<path d="M140.299 104.149C138.941 105.429 137.268 106.323 135.451 106.739C134.083 106.739 132.317 105.418 130.603 104.149C128.404 102.498 125.911 100.673 123.037 100.673C120.163 100.673 117.669 102.533 115.47 104.149C113.739 105.418 112.007 106.739 110.622 106.739C109.237 106.739 107.488 105.418 105.774 104.149C103.575 102.498 101.082 100.673 98.2078 100.673C95.3336 100.673 92.823 102.533 90.624 104.149C89.2657 105.429 87.5924 106.323 85.776 106.739C84.4081 106.739 82.6421 105.418 80.9279 104.149C78.729 102.498 76.2357 100.673 73.3615 100.673C70.4873 100.673 67.994 102.533 65.7951 104.149C64.0636 105.418 62.3321 106.739 60.947 106.739C59.5618 106.739 57.8131 105.418 56.0989 104.149C53.9 102.498 51.4067 100.673 48.5325 100.673C45.6583 100.673 43.1477 102.533 40.9487 104.149C39.5904 105.429 37.9171 106.323 36.1007 106.739C34.2869 106.316 32.6153 105.423 31.2527 104.149C29.0537 102.498 26.5604 100.673 23.6862 100.673C20.812 100.673 18.3187 102.533 16.1198 104.149C14.3883 105.418 12.6569 106.739 11.2717 106.739C9.88656 106.739 8.13779 105.418 6.42366 104.149C4.58481 102.499 2.38392 101.308 0 100.673V105.401C1.32681 106.026 2.57137 106.815 3.7053 107.747C5.90424 109.398 8.39752 111.223 11.2717 111.223C14.1459 111.223 16.6392 109.364 18.8382 107.747C20.5696 106.461 22.301 105.14 23.6862 105.14C25.0714 105.14 26.8201 106.461 28.5343 107.747C30.7332 109.398 33.2265 111.223 36.1007 111.223C38.9749 111.223 41.4855 109.364 43.6844 107.747C45.4159 106.461 47.1473 105.14 48.5325 105.14C49.9177 105.14 51.6664 106.461 53.3806 107.747C55.5795 109.398 58.0728 111.223 60.947 111.223C63.8212 111.223 66.3145 109.364 68.5134 107.747C70.2449 106.461 71.9763 105.14 73.3615 105.14C74.7466 105.14 76.4954 106.461 78.2095 107.747C80.4085 109.398 82.9017 111.223 85.776 111.223C88.6502 111.223 91.1608 109.364 93.3597 107.747C95.0912 106.461 96.8226 105.14 98.2078 105.14C99.5929 105.14 101.342 106.461 103.056 107.747C105.255 109.398 107.748 111.223 110.622 111.223C113.496 111.223 115.99 109.364 118.189 107.747C119.92 106.461 121.652 105.14 123.037 105.14C124.422 105.14 126.171 106.461 127.885 107.747C130.084 109.398 132.577 111.223 135.451 111.223C138.325 111.223 140.836 109.364 143.035 107.747C144.224 106.737 145.562 105.916 147 105.314V100.638C144.508 101.224 142.203 102.431 140.299 104.149Z" fill="#3D4C66"/>
<path d="M31.2527 98.7957C32.6106 100.08 34.2835 100.98 36.1008 101.403C37.9208 100.987 39.5955 100.086 40.9488 98.7957C43.1478 97.1619 45.6411 95.3195 48.5326 95.3195C51.4241 95.3195 53.9001 97.1793 56.099 98.7957C57.8305 100.082 59.5619 101.403 60.9471 101.403C62.3322 101.403 64.081 100.082 65.7951 98.7957C67.9941 97.1619 70.4874 95.3195 73.3616 95.3195C76.2358 95.3195 78.7291 97.1793 80.928 98.7957C82.6595 100.082 84.3909 101.403 85.776 101.403C87.596 100.987 89.2708 100.086 90.6241 98.7957C92.8231 97.1619 95.3163 95.3195 98.2079 95.3195C101.099 95.3195 103.575 97.1793 105.774 98.7957C107.506 100.082 109.237 101.403 110.622 101.403C112.008 101.403 113.756 100.082 115.47 98.7957C116.997 97.551 118.694 96.5325 120.509 95.7714C126.136 81.1884 136.975 51.5357 136.975 39.5773V26.3501C136.975 26.3501 67.8902 33.911 46.5241 55.3596C41.8492 60.0526 16.1199 83.5696 16.1199 83.5696V98.7957C18.3188 97.1619 20.8121 95.3195 23.6863 95.3195C26.5605 95.3195 29.0538 97.1619 31.2527 98.7957Z" fill="#252E3E"/>
<path d="M140.299 114.821C138.946 116.112 137.271 117.013 135.451 117.429C134.083 117.429 132.317 116.108 130.603 114.821C128.404 113.188 125.911 111.345 123.037 111.345C120.163 111.345 117.669 113.205 115.47 114.821C113.739 116.108 112.007 117.429 110.622 117.429C109.237 117.429 107.488 116.108 105.774 114.821C103.575 113.188 101.082 111.345 98.2078 111.345C95.3336 111.345 92.823 113.205 90.624 114.821C89.2707 116.112 87.596 117.013 85.776 117.429C84.4081 117.429 82.6421 116.108 80.9279 114.821C78.729 113.188 76.2357 111.345 73.3615 111.345C70.4873 111.345 67.994 113.205 65.7951 114.821C64.0636 116.108 62.3321 117.429 60.947 117.429C59.5618 117.429 57.8131 116.108 56.0989 114.821C53.9 113.188 51.4067 111.345 48.5325 111.345C45.6583 111.345 43.1477 113.205 40.9487 114.821C39.5954 116.112 37.9207 117.013 36.1007 117.429C34.2834 117.005 32.6105 116.106 31.2527 114.821C29.0537 113.188 26.5604 111.345 23.6862 111.345C20.812 111.345 18.3187 113.205 16.1198 114.821C14.3883 116.108 12.6569 117.429 11.2717 117.429C9.88656 117.429 8.13779 116.108 6.42366 114.821C4.57251 113.208 2.37362 112.048 0 111.432V116.16C1.33036 116.779 2.57571 117.568 3.7053 118.506C5.90424 120.14 8.39752 121.983 11.2717 121.983C14.1459 121.983 16.6392 120.123 18.8382 118.506C20.5696 117.22 22.301 115.899 23.6862 115.899C25.0714 115.899 26.8201 117.22 28.5343 118.506C30.7332 120.14 33.2265 121.983 36.1007 121.983C38.9749 121.983 41.4855 120.123 43.6844 118.506C45.4159 117.22 47.1473 115.899 48.5325 115.899C49.9177 115.899 51.6664 117.22 53.3806 118.506C55.5795 120.14 58.0728 121.983 60.947 121.983C63.8212 121.983 66.3145 120.123 68.5134 118.506C70.2449 117.22 71.9763 115.899 73.3615 115.899C74.7466 115.899 76.4954 117.22 78.2095 118.506C80.4085 120.14 82.9017 121.983 85.776 121.983C88.6502 121.983 91.1608 120.123 93.3597 118.506C95.0912 117.22 96.8226 115.899 98.2078 115.899C99.5929 115.899 101.342 117.22 103.056 118.506C105.255 120.14 107.748 121.983 110.622 121.983C113.496 121.983 115.99 120.123 118.189 118.506C119.92 117.22 121.652 115.899 123.037 115.899C124.422 115.899 126.171 117.22 127.885 118.506C130.084 120.14 132.577 121.983 135.451 121.983C138.325 121.983 140.836 120.123 143.035 118.506C144.224 117.496 145.562 116.675 147 116.073V111.397C144.516 111.956 142.211 113.134 140.299 114.821Z" fill="#3D4C66"/>
<path d="M121.011 50.0064C121.011 48.7482 120.639 47.5182 119.943 46.4721C119.247 45.4259 118.257 44.6105 117.099 44.129C115.941 43.6475 114.667 43.5216 113.437 43.767C112.208 44.0125 111.079 44.6184 110.193 45.508C109.307 46.3977 108.703 47.5313 108.458 48.7653C108.214 49.9993 108.339 51.2784 108.819 52.4408C109.299 53.6033 110.111 54.5968 111.153 55.2958C112.195 55.9948 113.42 56.3679 114.674 56.3679C116.354 56.3679 117.966 55.6977 119.155 54.5047C120.343 53.3117 121.011 51.6936 121.011 50.0064Z" fill="white"/>
<path d="M127.279 22.0395C127.279 21.352 127.076 20.6799 126.695 20.1082C126.315 19.5365 125.774 19.091 125.141 18.8279C124.508 18.5647 123.812 18.4959 123.14 18.63C122.469 18.7642 121.852 19.0953 121.367 19.5814C120.883 20.0676 120.553 20.687 120.42 21.3613C120.286 22.0357 120.355 22.7346 120.617 23.3698C120.879 24.005 121.323 24.548 121.892 24.9299C122.462 25.3119 123.131 25.5158 123.816 25.5158C124.734 25.5158 125.615 25.1495 126.265 24.4976C126.914 23.8457 127.279 22.9615 127.279 22.0395Z" fill="#252E3E"/>
<path d="M111.817 24.8381C111.817 24.1505 111.614 23.4785 111.233 22.9068C110.853 22.3351 110.312 21.8896 109.679 21.6264C109.046 21.3633 108.35 21.2945 107.678 21.4286C107.007 21.5627 106.39 21.8938 105.905 22.38C105.421 22.8662 105.091 23.4856 104.958 24.1599C104.824 24.8342 104.893 25.5332 105.155 26.1684C105.417 26.8036 105.861 27.3465 106.43 27.7285C107 28.1105 107.669 28.3144 108.354 28.3144C109.272 28.3144 110.153 27.9481 110.803 27.2962C111.452 26.6443 111.817 25.76 111.817 24.8381Z" fill="#252E3E"/>
<path d="M94.9526 29.0095C94.9526 28.322 94.7496 27.6498 94.3691 27.0782C93.9885 26.5065 93.4477 26.0609 92.8149 25.7978C92.1822 25.5347 91.4859 25.4659 90.8142 25.6C90.1424 25.7341 89.5254 26.0652 89.0411 26.5514C88.5568 27.0376 88.227 27.657 88.0934 28.3313C87.9598 29.0056 88.0283 29.7046 88.2904 30.3398C88.5525 30.975 88.9964 31.5179 89.5659 31.8999C90.1353 32.2819 90.8049 32.4858 91.4897 32.4858C92.4082 32.4858 93.289 32.1195 93.9384 31.4676C94.5878 30.8157 94.9526 29.9315 94.9526 29.0095Z" fill="#252E3E"/>
<path d="M78.4866 34.2239C78.4866 33.5363 78.2835 32.8642 77.903 32.2925C77.5225 31.7209 76.9817 31.2753 76.3489 31.0122C75.7161 30.7491 75.0199 30.6802 74.3481 30.8144C73.6764 30.9485 73.0594 31.2796 72.5751 31.7657C72.0908 32.2519 71.7609 32.8713 71.6273 33.5457C71.4937 34.22 71.5623 34.919 71.8244 35.5542C72.0865 36.1894 72.5303 36.7323 73.0998 37.1143C73.6693 37.4962 74.3388 37.7001 75.0237 37.7001C75.9421 37.7001 76.8229 37.3339 77.4723 36.682C78.1218 36.03 78.4866 35.1458 78.4866 34.2239Z" fill="#252E3E"/>
<path d="M63.0941 19.8843H21.5393V21.4486V27.8276V29.3919H63.0941V19.8843ZM27.4955 26.8368H24.0326V22.3698H27.4955V26.8368ZM34.1443 26.8368H30.6814V22.3698H34.1443V26.8368ZM40.7757 26.8368H37.3128V22.3698H40.7757V26.8368ZM47.4245 26.8368H43.9616V22.3698H47.4245V26.8368ZM54.0732 26.8368H50.6103V22.3698H54.0732V26.8368ZM57.2764 26.8368V22.3698H60.7393V26.9411L57.2764 26.8368Z" fill="#3D4C66"/>
<path d="M28.188 6.67456H26.4912V21.3445H28.188V6.67456Z" fill="#3D4C66"/>
<path d="M30.7333 10.0986H23.946V11.802H30.7333V10.0986Z" fill="#3D4C66"/>
<path d="M38.4727 0H36.7759V21.3443H38.4727V0Z" fill="#3D4C66"/>
<path d="M41.018 5.52734H34.2307V7.23072H41.018V5.52734Z" fill="#3D4C66"/>
<path d="M43.719 13.1577H31.5469V14.8611H43.719V13.1577Z" fill="#3D4C66"/>
</g>
<defs>
<clipPath id="clip0_45_100">
<rect width="147" height="122" fill="white"/>
</clipPath>
</defs>
</svg>
